<?xml version="1.0" standalone="no"?>
<!DOCTYPE svg PUBLIC "-//W3C//DTD SVG 1.1//EN" "http://www.w3.org/Graphics/SVG/1.1/DTD/svg11.dtd" >
<svg xmlns="http://www.w3.org/2000/svg">
<metadata>
This is a custom SVG webfont generated by Font Squirrel.
Designer    : Jack Usine
Foundry URL : www.smeltery.net
</metadata>
<defs>
<font id="webfont4xsyCDAS" horiz-adv-x="522" >
<font-face units-per-em="1000" ascent="759" descent="-241" />
<missing-glyph horiz-adv-x="300" />
<glyph unicode=" "  horiz-adv-x="300" />
<glyph unicode="&#x09;" horiz-adv-x="300" />
<glyph unicode="&#xa0;" horiz-adv-x="300" />
<glyph unicode="!" horiz-adv-x="238" d="M144 682h100l-15 -85l-99 -378h-37l36 378zM25 1l17 96h97l-17 -96h-97z" />
<glyph unicode="&#x22;" horiz-adv-x="305" d="M96 567l21 115h69l-21 -115l-53 -154h-16v154zM269 682h69l-21 -115l-54 -154h-16l1 154z" />
<glyph unicode="#" horiz-adv-x="631" d="M584 682l-50 -165h86l-14 -78h-96l-61 -196h67l-13 -78h-78l-51 -165h-78l50 165h-140l-23 -74l-28 -91h-78l50 165h-86l13 78h96l61 196h-68l14 78h79q24 84 51 165h78l-50 -165h140l51 165h78zM369 243l62 196h-140l-62 -196h140z" />
<glyph unicode="$" horiz-adv-x="492" d="M214 -55h-46l10 55h-125l13 78h125l40 224q-46 6 -79 27t-47.5 48.5t-21.5 58t0 56.5q12 63 67 120t148 69l9 56h46l-9 -55h126l-14 -78h-126l-40 -225q46 -6 79 -27t47.5 -48t21.5 -57.5t0 -56.5q-11 -62 -66.5 -120t-147.5 -70zM162 492q-4 -8 -1.5 -23.5t8 -32t25 -33 t50.5 -24.5l40 225q-44 -10 -73.5 -35t-37.5 -42.5t-11 -34.5zM359 189q4 8 1.5 24t-8 32t-25 32.5t-50.5 24.5l-40 -225q33 8 58 24t38 34t18.5 30.5t7.5 23.5z" />
<glyph unicode="%" horiz-adv-x="909" d="M707 353q73 0 116 -51.5t30 -124.5q-13 -74 -74 -125.5t-134 -51.5q-74 0 -116 51.5t-29 125.5q13 73 73.5 124.5t133.5 51.5zM293 682q73 0 115.5 -51.5t29.5 -124.5q-14 -74 -74 -125.5t-133 -51.5t-115.5 51.5t-29.5 125.5q13 73 73.5 124.5t133.5 51.5zM243 397 q45 0 83 32t46 77q8 44 -19 76t-72 32t-82.5 -32t-45.5 -76q-8 -45 18.5 -77t71.5 -32zM656 68q45 0 83 32t46 77q8 44 -18.5 76t-71.5 32q-44 0 -82.5 -32t-45.5 -76q-8 -45 18.5 -77t70.5 -32zM230 0h-60l528 682h60z" />
<glyph unicode="&#x26;" horiz-adv-x="527" d="M403 219h-78l15 83h-70q-14 0 -30.5 -3t-43 -13t-46.5 -35t-27 -61q-5 -29 2.5 -51t21 -33.5t32 -18t30 -8t20.5 -1.5h204l-13 -78h-204q-33 0 -65 10.5t-60 31.5t-41.5 59.5t-4.5 88.5q15 87 103 151q-65 63 -50 151q9 49 36 87.5t62.5 60t71 32t68.5 10.5h149l-14 -78 h-148q-16 -1 -31 -4t-42 -12.5t-47 -34.5t-27 -61q-5 -29 2.5 -51t21 -33.5t32 -18t30.5 -8t22 -1.5h70l14 83h78l-14 -83h110l-14 -78h-110z" />
<glyph unicode="'" horiz-adv-x="152" d="M96 567l21 115h68l-21 -115l-23.5 -70.5t-29.5 -83.5h-16q-1 27 0 77.5t1 76.5z" />
<glyph unicode="(" horiz-adv-x="288" d="M57 259q20 115 73 226t115 197h91q-164 -211 -201 -423q-37 -209 51 -424h-91q-75 213 -38 424z" />
<glyph unicode=")" horiz-adv-x="288" d="M231 259q37 209 -38 423h-91q88 -215 51 -423q-37 -210 -200 -424h90q62 86 115 197t73 227z" />
<glyph unicode="*" horiz-adv-x="381" d="M285 681l-18 -116l120 33q4 -16 6 -35l-119 -40l51 -105q-19 -16 -31 -21l-61 100l-95 -100q-16 9 -27 21l92 105l-54.5 19.5t-52.5 19.5q7 18 19 36l107 -34l26 117q18 2 37 0z" />
<glyph unicode="+" horiz-adv-x="492" d="M457 298l-14 -79h-165l-29 -164h-79l29 164h-164l14 79h164l29 165h79l-29 -165h165z" />
<glyph unicode="," horiz-adv-x="181" d="M-3 0l16 96h97l-17 -101q-6 -31 -19 -55.5t-29 -39t-27 -21.5t-20 -11q-2 6 -8 16l-9 15q32 12 47 37q16 24 16 44v20h-47z" />
<glyph unicode="-" horiz-adv-x="381" d="M49 298h297l-14 -79h-297z" />
<glyph unicode="." horiz-adv-x="180" d="M-3 1l17 96h96l-17 -96h-96z" />
<glyph unicode="/" horiz-adv-x="305" d="M-28 -110l304 792h67l-305 -792h-66z" />
<glyph unicode="0" horiz-adv-x="487" d="M346 682q30 0 53.5 -8t36 -21.5t21 -29t10.5 -31.5t2.5 -29.5t-0.5 -21.5l-1 -8l-67 -384q-7 -42 -28 -72.5t-45 -44.5t-48 -22q-22 -8 -38 -9l-16 -1h-55q-107 0 -123 96q-5 29 0 53l67 384q20 110 126 141q28 8 50 8h55zM322 149l67 384q6 32 -8.5 49.5t-31.5 19.5 l-17 2h-55q-59 0 -80 -60l-3 -11l-67 -384q-6 -32 8.5 -49.5t31.5 -19.5l17 -2h55q59 0 80 60z" />
<glyph unicode="1" horiz-adv-x="351" d="M112 682h188l-107 -604h109l-13 -78h-297l13 78h109l93 526h-109z" />
<glyph unicode="2" horiz-adv-x="431" d="M437 533q-10 -57 -46.5 -124.5t-82 -123.5t-89.5 -104q-43 -47 -73 -75l-30 -28h241l-13 -78h-331l13 78l32.5 31t74 77.5t96 110.5t81.5 119.5t48 116.5q12 69 -56 71h-56q-62 0 -79 -57q-15 0 -40 0.5t-39 0.5q9 50 55.5 92t116.5 42h55q24 0 47.5 -8t43.5 -24.5 t29 -47t2 -69.5z" />
<glyph unicode="3" horiz-adv-x="457" d="M429 479l9 54q20 110 -75 141q-25 8 -48 8h-54q-42 0 -75 -13.5t-50.5 -33t-29.5 -39.5q-10 -20 -14 -34l-4 -13h79q4 25 24 39q20 12 38 14l18 2h54q56 0 59 -53l-1 -18l-9 -56q-3 -14 -8 -27t-17 -30.5t-35.5 -28.5t-54.5 -11h-11l-14 -78h16q18 -1 28.5 -3t26.5 -10.5 t21 -30t-1 -54.5l-9 -55q-1 -3 -2 -7.5t-7 -17t-14.5 -22t-24.5 -17t-36 -7.5h-54q-3 0 -7.5 0.5t-16 3.5t-20 8t-14 16.5t-2.5 27.5h-79q-6 -15 -1.5 -37.5t13.5 -44t39 -37t75 -15.5h54q6 0 16.5 1t37.5 9t49.5 22t44 44.5t28.5 72.5l9 55q6 19 3.5 39t-3.5 30t-9.5 24.5 t-14 21.5t-17.5 21q43 39 63 69t27 70z" />
<glyph unicode="4" horiz-adv-x="419" d="M240 682h88l-232 -439h160l20 110h79l-20 -110h54l-13 -78h-54l-29 -165h-79l29 165h-232l16 93z" />
<glyph unicode="5" horiz-adv-x="463" d="M297 407q42 0 70 -15t38.5 -37t15 -44t2.5 -37l-2 -15l-19 -110q-19 -110 -126 -141q-28 -8 -50 -8h-54q-42 0 -70.5 14t-39.5 33.5t-15 39t-3 33.5t2 14h79q-4 -25 11 -39q15 -13 32 -15l17 -2h54q20 0 36 7.5t24.5 17.5t14 20.5t7.5 18.5l2 7l19 110q1 3 1 7.5 t-1.5 16.5t-6.5 21.5t-18 17t-33 7.5h-204l62 353h320l-14 -78h-241l-35 -197h125z" />
<glyph unicode="6" horiz-adv-x="462" d="M297 407q74 0 103.5 -47t19.5 -101l-19 -110q-13 -74 -66.5 -111.5t-108.5 -37.5h-55q-39 0 -67 15t-40 37t-17 48t1 49l67 384q4 24 17 48.5t33.5 48t53.5 38t72 14.5h182l-14 -78h-182q-70 0 -83 -71l-22 -126h125zM322 149l19 110q11 70 -57 70h-125l-32 -180 q-13 -71 57 -71h55q71 2 83 71z" />
<glyph unicode="7" horiz-adv-x="386" d="M429 599l-276 -599h-78l281 604h-278l14 78h352z" />
<glyph unicode="8" horiz-adv-x="488" d="M460 479q-13 -76 -85 -126q24 -24 34 -56q10 -31 8 -51l-2 -20l-13 -77q-19 -110 -126 -141q-28 -8 -50 -8h-54q-42 0 -70 15.5t-38.5 37.5t-15 43.5t-2.5 37.5l2 15l13 77q13 73 84 124q-23 25 -32.5 57t-8.5 52t2 20l9 54q8 42 29 72.5t45.5 44.5t48.5 22q22 8 38 9 l16 1h54q108 0 123 -96q5 -29 0 -53zM323 149l17 99q11 58 -45 69l-13 2h-54q-20 0 -36 -7.5t-24.5 -17.5t-13.5 -20q-6 -10 -8 -18l-2 -8l-17 -99q-11 -58 45 -69l13 -2h54q20 0 36 7.5t24.5 17.5t14 20.5t7.5 18.5zM194 533l-13 -76q-10 -58 46 -69l13 -2h54q60 0 80 60 l3 11l13 76q11 58 -45 69l-13 2h-54q-32 0 -53 -18t-26 -36z" />
<glyph unicode="9" horiz-adv-x="463" d="M195 275q-39 0 -67 15t-40 37t-17.5 48t0.5 48l19 110q14 75 67.5 112t109.5 37h54q39 0 67 -15t39.5 -37.5t17 -48.5t-0.5 -48l-67 -384q-10 -55 -55.5 -102t-120.5 -47h-182l13 78h182q68 0 84 71l22 126h-125zM169 533l-19 -109q-11 -71 59 -71h125l31 180 q11 71 -58 71h-54q-72 -2 -84 -71z" />
<glyph unicode=":" horiz-adv-x="181" d="M-3 1l17 96h97l-17 -96h-97zM79 470h97l-17 -97h-97z" />
<glyph unicode=";" horiz-adv-x="176" d="M-3 0l16 96h97l-17 -101q-6 -31 -19 -55.5t-29 -39t-27 -21.5t-20 -11q-2 6 -8 16l-9 15q32 12 47 37q16 24 16 44v20h-47zM79 470h97l-17 -97h-97z" />
<glyph unicode="&#x3c;" horiz-adv-x="428" d="M357 10l-336 214l12 70l412 213l-17 -96l-318 -152l264 -152z" />
<glyph unicode="=" horiz-adv-x="492" d="M68 407h408l-13 -78h-408zM16 110l14 78h408l-14 -78h-408z" />
<glyph unicode="&#x3e;" horiz-adv-x="428" d="M-17 10l412 215l12 69l-336 213l-17 -96l264 -152l-318 -152z" />
<glyph unicode="?" horiz-adv-x="437" d="M321 682q24 0 47.5 -8t43.5 -24.5t29 -47t2 -69.5q-5 -30 -23.5 -60t-35.5 -48t-48 -47q-6 -7 -34 -33.5t-39.5 -39.5t-26.5 -37.5t-21 -48.5h-48q22 114 119 209q27 26 40 40t24.5 31.5t13.5 33.5q12 69 -56 71h-55q-60 -2 -80 -55h-80q17 68 68.5 100.5t104.5 32.5h55z M108 1l17 96h97l-17 -96h-97z" />
<glyph unicode="@" horiz-adv-x="641" d="M472 517q106 0 121 -95q5 -29 1 -53l-39 -220q-11 -62 -62 -105.5t-112 -43.5q-97 0 -117 72q-9 -23 -38.5 -47.5t-64.5 -24.5q-62 0 -98 44t-25 105q10 62 61.5 105.5t113.5 43.5h149l-26 -149q-5 -29 12 -50t46 -21q28 0 53 21t30 50l39 220q5 31 -9.5 48.5t-31.5 19.5 l-17 2h-369l14 78h369zM174 78q29 0 53.5 21t29.5 50l12 70h-70q-29 0 -53.5 -20.5t-29.5 -49.5q-5 -28 12 -49.5t46 -21.5z" />
<glyph unicode="A" horiz-adv-x="461" d="M357 682l62 -682h-79l-11 110h-250l-48 -110h-79l301 682h104zM115 188h206l-23 410h-16z" />
<glyph unicode="B" horiz-adv-x="532" d="M505 494q-12 -67 -99 -134q87 -58 68 -167q-14 -80 -80.5 -136.5t-146.5 -56.5h-215l120 682h199q77 0 122 -54.5t32 -133.5zM260 78q47 0 86.5 34t48.5 81q8 47 -19.5 80.5t-74.5 33.5h-136l-41 -229h136zM337 604h-120l-38 -218h120q44 0 81.5 32t45.5 76q7 46 -19 78 t-70 32z" />
<glyph unicode="C" horiz-adv-x="507" d="M427 494h79q2 0 3.5 19.5t-4.5 47t-20.5 55t-53 47t-95.5 19.5q-147 0 -214 -132q-20 -39 -26 -71l-49 -275q-1 -4 -1.5 -11.5t-0.5 -28.5t4 -40.5t15 -43t29 -40.5t49.5 -28.5t73.5 -11.5q148 0 213 125q18 35 23 63h-79l-3 -11.5t-12 -26.5t-24.5 -33.5t-42 -26.5 t-62.5 -12t-58.5 13t-32 31.5t-12.5 37.5q-4 18 -2 31l2 13l49 275q1 5 3 13.5t12.5 30t25.5 38t43 30t63 13.5t58.5 -11.5t32.5 -27.5t13 -32q3 -15 2 -27z" />
<glyph unicode="D" horiz-adv-x="542" d="M356 682q3 0 7 -0.5t18 -2t26.5 -5t30.5 -10.5t30.5 -17t27.5 -25t21 -35.5t10.5 -47t-3.5 -60.5l-49 -275q-1 -8 -5 -22t-21 -49t-40.5 -62t-69.5 -49t-103 -22h-204l120 682h204zM396 204l49 275q6 35 -2.5 61t-24.5 37.5t-34 18.5q-18 6 -30 7l-12 1h-125l-93 -526 h125q97 0 137 93z" />
<glyph unicode="E" horiz-adv-x="453" d="M379 78l-13 -78h-150q-33 0 -65 10.5t-60 31.5t-41.5 59.5t-4.5 88.5q16 88 103 151q-65 63 -50 151q12 65 55 110t90.5 62.5t92.5 17.5h150l-14 -78h-150l-21.5 -2t-32.5 -8t-38 -17.5t-32 -32.5t-21 -52q-5 -29 2.5 -51t21 -33.5t32 -18t30 -8t20.5 -1.5h94l-14 -78 h-94q-13 0 -29.5 -3t-42.5 -13t-46 -35t-27 -61q-5 -29 2.5 -51t20.5 -33.5t31.5 -18t30 -8t20.5 -1.5h150z" />
<glyph unicode="F" horiz-adv-x="411" d="M152 682h297l-14 -78h-219l-44 -251h219l-14 -78h-219l-48 -275h-78z" />
<glyph unicode="G" d="M455 204q-25 -143 -159 -189q-44 -15 -80 -15q-42 0 -73.5 11.5t-49 29t-29.5 39.5t-15 44t-4 40q-1 16 1 28l1 12l49 275q1 8 5 22t21 49t41 61.5t70 48.5t103 22q42 0 74.5 -11t49.5 -28.5t29 -39.5t14 -42.5t4 -38.5t-1 -28h-79q0 4 -1 11.5t-7 26.5t-16 33.5 t-31 26.5t-50 12q-35 0 -63 -13t-43 -31t-25 -36.5t-13 -31.5l-3 -13l-49 -275q-1 -5 -1.5 -13.5t2.5 -30.5t11.5 -38.5t32 -30t58.5 -13.5q97 0 137 93l10 33l13 71h-109l14 78h188z" />
<glyph unicode="H" horiz-adv-x="562" d="M152 682h79l-49 -275h250l49 275h79l-120 -682h-79l58 329h-250l-58 -329h-79z" />
<glyph unicode="I" horiz-adv-x="233" d="M32 0h79l120 682h-79z" />
<glyph unicode="J" horiz-adv-x="370" d="M300 682h78l-94 -533q-11 -62 -62.5 -105.5t-112.5 -43.5q-57 0 -92.5 39t-31.5 95h78q2 -24 18.5 -40t40.5 -16q29 0 54 21t30 50z" />
<glyph unicode="K" horiz-adv-x="531" d="M353 429l126 -429h-91l-106 365l-131 -134l-40 -231h-79l120 682h79l-63 -354l310 354h96z" />
<glyph unicode="L" horiz-adv-x="384" d="M231 682h-79l-120 -682h310l13 78h-231z" />
<glyph unicode="M" horiz-adv-x="671" d="M584 682h85l-120 -682h-78l96 546l-235 -312l-126 312l-96 -546h-78l120 682h85l123 -289z" />
<glyph unicode="N" horiz-adv-x="562" d="M481 682h79l-120 -682h-84l-154 521l-91 -521h-79l120 682h84l154 -514z" />
<glyph unicode="O" d="M336 682q140 0 166 -120q9 -44 2 -83l-49 -275q-1 -8 -5 -22t-21 -49t-40.5 -62t-69.5 -49t-103 -22q-42 0 -73.5 11.5t-49 29t-29.5 39.5t-15 44t-4 40q-1 16 1 28l1 12l49 275q1 8 5 22t21 49t41 61.5t70 48.5t103 22zM376 204l49 275q1 5 1.5 13.5t-2.5 30t-11.5 38 t-32 30t-58.5 13.5t-63 -13t-43 -31t-25 -36.5t-13 -31.5l-3 -13l-49 -275q-1 -5 -1.5 -13.5t2.5 -30.5t11.5 -38.5t32 -30t58.5 -13.5q97 0 137 93z" />
<glyph unicode="P" horiz-adv-x="512" d="M356 681q3 0 7 -0.5t18 -2t26.5 -5t30.5 -10.5t30.5 -17t27.5 -25t21 -35.5t10.5 -47t-3.5 -60.5q-10 -57 -38.5 -99t-62 -61.5t-65.5 -30.5t-53 -12l-21 -1h-125l-48 -274h-79l120 681h204zM298 352q5 0 13.5 1t31.5 7.5t41.5 18.5t36.5 38t24 61t-2.5 60.5t-24.5 37.5 t-34 19t-30 7l-12 1h-125l-44 -251h125z" />
<glyph unicode="Q" d="M352 -52q57 -52 131 -74l-17 -43l-14 -36q-78 23 -161 91q-52 50 -93 114q-52 4 -86.5 27t-46.5 52t-17 57q-6 28 -4 48l3 20l49 275q1 8 5 22t21 49t41 61.5t70 48.5t103 22q140 0 166 -120q9 -44 2 -83l-49 -275q-1 -5 -3.5 -14.5t-13.5 -36t-27 -49.5t-46 -50t-68 -44 q37 -47 55 -62zM126 204q-1 -5 -1.5 -13.5t2.5 -30.5t11.5 -38.5t32 -30t58.5 -13.5t63.5 13t43.5 31.5t25 37t13 31.5l3 13l49 275q1 5 1.5 13.5t-2.5 30t-12 38t-32.5 30t-58.5 13.5t-63 -13t-43 -31t-25 -36.5t-13 -31.5l-3 -13z" />
<glyph unicode="R" d="M524 478q-8 -47 -30.5 -83.5t-53 -59t-58.5 -35.5t-59 -21l106 -279h-90l-104 274h-76l-48 -274h-79l120 681h204q3 0 7 -0.5t18 -2t26.5 -5t30.5 -10.5t30.5 -17t27.5 -25t21 -35.5t10.5 -47t-3.5 -60.5zM217 603l-44 -251l132 1q14 1 30.5 6t41 17t43 38.5t25.5 63.5 q6 35 -2.5 60.5t-24.5 37.5t-34 19t-30 7l-12 1h-125z" />
<glyph unicode="S" horiz-adv-x="482" d="M171 511q-5 -26 14 -53.5t50.5 -50.5l68 -50.5t67 -53.5t48 -61t11.5 -71q-15 -80 -80.5 -125.5t-153.5 -45.5h-149l13 77h149q5 0 12.5 0.5t28.5 6t37.5 14t32.5 28t20 45.5q5 31 -22 63t-68.5 61l-83 60t-67 71.5t-17.5 84.5q14 80 80 125.5t154 45.5h148l-14 -78h-148 q-5 0 -12.5 -0.5t-28.5 -5.5t-37.5 -14t-32.5 -28t-20 -45z" />
<glyph unicode="T" horiz-adv-x="402" d="M72 681h408l-14 -78h-165l-106 -603h-79l106 603h-164z" />
<glyph unicode="U" horiz-adv-x="542" d="M471 681h79l-85 -477q-1 -8 -5 -22t-21 -49t-40.5 -62t-69.5 -49t-103 -22q-42 0 -73.5 11.5t-49 29t-29.5 39.5t-15 44t-4 40q-1 16 1 28l1 12l85 477h79l-85 -477q-1 -5 -1.5 -13.5t2.5 -30.5t11.5 -38.5t32 -30t58.5 -13.5q97 0 137 93l10 33z" />
<glyph unicode="V" horiz-adv-x="471" d="M468 681h81l-330 -681h-57l-90 681h82l63 -532z" />
<glyph unicode="W" horiz-adv-x="640" d="M620 681h78l-232 -681h-89l-37 370l-168 -370h-89l9 681h78l-15 -563l164 344h77l44 -344z" />
<glyph unicode="X" horiz-adv-x="506" d="M554 682l-225 -340l104 -342h-86l-89 289l-190 -289h-86l224 342l-104 340h86l89 -289l190 289h87z" />
<glyph unicode="Y" horiz-adv-x="428" d="M516 682l-256 -388l-51 -294h-79l51 294l-119 388h88l84 -308l195 308h87z" />
<glyph unicode="Z" horiz-adv-x="482" d="M520 681l-14 -78l-413 -525h320l-13 -78h-408l13 77l413 526h-320l14 78h408z" />
<glyph unicode="[" horiz-adv-x="302" d="M336 604h-110l-122 -691h110l-14 -78h-188l150 847h188z" />
<glyph unicode="\" horiz-adv-x="305" d="M137 -110h66q-4 134 -12.5 396t-12.5 396h-66l12.5 -392t12.5 -400z" />
<glyph unicode="]" horiz-adv-x="302" d="M102 682l-14 -78h110l-122 -691h-110l-13 -78h187l150 847h-188z" />
<glyph unicode="^" horiz-adv-x="569" d="M256 419h113l137 -279l-71 -44l-132 269l-227 -269q-8 6 -18.5 15l-18.5 16t-18 14z" />
<glyph unicode="_" horiz-adv-x="586" d="M-30 51h572l-8 -51h-572z" />
<glyph unicode="`" horiz-adv-x="237" d="M126 736h82q20 -58 46 -141h-59z" />
<glyph unicode="a" horiz-adv-x="504" d="M443 79l-13 -78q-8 2 -21 6.5t-41.5 23t-44.5 42.5q-54 -73 -97 -73h-54q-6 0 -16 1t-34.5 9t-42 22t-28 44.5t-3.5 72.5l39 220q1 6 3.5 16t15.5 35.5t30.5 45t51 35.5t75.5 16h203l-65 -368q2 -3 -0.5 -16t8.5 -31t34 -23zM239 78q20 0 36 7.5t24.5 17.5t14 20.5 t7.5 18.5l2 7l51 290h-125q-32 0 -52.5 -17.5t-25.5 -35.5l-5 -17l-39 -220q-11 -58 45 -69l13 -2h54z" />
<glyph unicode="b" horiz-adv-x="497" d="M327 517q6 0 16 -1t34 -9t41.5 -22t28 -44.5t3.5 -71.5l-39 -220q-7 -42 -28 -72.5t-45 -44.5t-48 -22q-22 -8 -38 -9l-16 -1h-55q-17 0 -23 20q-7 18 -5 38l2 20l-91 -78h-32l129 737h79l-38 -220h125zM332 149l39 220q5 31 -9.5 48.5t-31.5 19.5l-17 2h-125l-51 -290 q-6 -32 8.5 -49.5t31.5 -19.5l17 -2h55q59 0 80 60z" />
<glyph unicode="c" horiz-adv-x="464" d="M87 369l-39 -220q-7 -42 3 -72.5t29.5 -44.5t39.5 -22t36 -9l16 -1h54q114 0 159 96q10 21 13 38h-79q-9 -48 -71 -55l-9 -1h-54q-56 0 -59 53l1 18l39 220q5 31 26 48.5t39 19.5l18 2h54q30 0 45 -13q14 -14 14 -28v-14h81q7 37 -3.5 64.5t-30 40t-40.5 19.5t-37 8 l-15 1h-54q-42 0 -75.5 -15t-51.5 -37t-30 -44t-16 -37z" />
<glyph unicode="d" horiz-adv-x="504" d="M443 79l-13 -78q-8 2 -21 6.5t-41.5 23t-44.5 42.5q-54 -73 -97 -73h-54q-6 0 -16 1t-34.5 9t-42 22t-28 44.5t-3.5 72.5l39 220q1 6 3.5 16t15.5 35.5t30.5 45t51 35.5t75.5 16h125l38 220h78l-103 -588q2 -3 -0.5 -16t8.5 -31t34 -23zM239 78q20 0 36 7.5t24.5 17.5 t14 20.5t7.5 18.5l2 7l51 290h-125q-32 0 -52.5 -17.5t-25.5 -35.5l-5 -17l-39 -220q-11 -58 45 -69l13 -2h54z" />
<glyph unicode="e" horiz-adv-x="468" d="M441 369q-1 -6 -4 -16t-15.5 -36t-30 -46t-51.5 -36t-76 -16h-125l-12 -70q-1 -3 -1 -7.5t1.5 -17t6.5 -22t18 -17t33 -7.5h204l-13 -78h-204q-6 0 -16 1t-34.5 9t-42 22t-28 44.5t-3.5 72.5l39 220q1 6 3.5 16t15.5 35.5t30.5 45t51 35.5t75.5 16h54q6 0 16 -1t34.5 -9 t42 -22t28 -44.5t3.5 -71.5zM153 298h125q3 0 8 0.5t18 4.5t23.5 10.5t20.5 21t14 34.5q5 31 -9.5 48.5t-32.5 19.5l-17 2h-54q-3 0 -8 -0.5t-17.5 -4t-23 -10.5t-21 -21t-13.5 -34z" />
<glyph unicode="f" horiz-adv-x="289" d="M269 658q-31 0 -52 -18q-21 -16 -26 -34l-5 -18q1 -3 -1 -18.5t7.5 -34t31.5 -18.5h94l-14 -78h-109l-90 -510q-7 -41 -27.5 -71.5t-47 -45t-46 -21t-38.5 -9.5l14 78q24 0 40 17q18 17 22 35l4 17l90 510h-55l14 78h77q-47 52 -40 93q17 95 124 121q26 6 46 6h74 l-13 -79h-74z" />
<glyph unicode="g" horiz-adv-x="497" d="M434 517h32l-104 -588q-7 -41 -28 -71.5t-45 -44.5t-47.5 -22t-39.5 -9l-15 -1h-171l14 78h171q31 0 51.5 17.5t25.5 35.5l5 17l13 71h-125q-6 0 -16 1t-34 9t-41.5 22t-28 44.5t-3.5 72.5l39 220q7 41 28 71.5t45 44.5t48 22q22 8 38 9l16 1h55q17 0 23 -19q6 -20 4 -39 l-2 -19zM309 78l52 291q5 31 -9.5 48.5t-31.5 19.5l-17 2h-55q-31 0 -51.5 -17.5t-25.5 -35.5l-5 -17l-39 -220q-6 -32 8.5 -49.5t31.5 -19.5l17 -2h125z" />
<glyph unicode="h" horiz-adv-x="502" d="M327 517q6 0 16 -1t34 -9t41.5 -22t28 -44.5t3.5 -71.5l-65 -369h-79l65 369q5 31 -9.5 48.5t-31.5 19.5l-17 2h-125l-77 -439h-79l130 739h79l-39 -222h125z" />
<glyph unicode="i" horiz-adv-x="239" d="M178 79l-13 -78q-5 1 -13.5 3.5t-29.5 13.5t-36 25.5t-24.5 43t-3.5 62.5l65 368h79l-65 -368q2 -3 -0.5 -16t8 -31t33.5 -23zM240 737l-13 -79h-79l13 79h79z" />
<glyph unicode="j" horiz-adv-x="235" d="M125 515h78l-103 -586q-7 -41 -27 -71.5t-46 -45t-46 -21.5t-39 -9l14 78q24 0 40 17q18 17 22 35l4 17zM164 737h78l-13 -79h-78z" />
<glyph unicode="k" horiz-adv-x="449" d="M407 0h-91l-101 255l-77 -91l-28 -164h-78l129 737h78l-83 -471l234 251h99l-201 -216z" />
<glyph unicode="l" horiz-adv-x="240" d="M179 79l-13 -78q-5 1 -14 3.5t-30 13.5t-36 25.5t-24.5 43t-3.5 62.5l103 588h78l-103 -588q0 -2 -0.5 -6t1 -15t5 -20t13 -17.5t24.5 -11.5z" />
<glyph unicode="m" horiz-adv-x="666" d="M492 517q106 0 121 -95q5 -29 1 -53l-65 -369h-78l65 369q0 3 0.5 7.5t-1 16.5t-6.5 21.5t-18 17t-33 7.5q-32 0 -52.5 -17.5t-25.5 -35.5l-5 -17l-65 -369h-79l65 369q5 31 -9.5 48.5t-31.5 19.5l-17 2q-32 0 -52.5 -17.5t-25.5 -35.5l-5 -17l-65 -369h-78l91 517h32 l64 -77q12 68 49 76l4 1q79 0 96 -69q7 8 18 19.5t44 30.5t62 19z" />
<glyph unicode="n" horiz-adv-x="503" d="M386 0l65 371q7 41 -3 71.5t-29.5 44t-40 21.5t-36.5 8l-15 1h-54q-4 0 -11.5 -2t-22 -21.5t-20.5 -54.5l-63 78h-33l-91 -517h79l64 368q1 3 2 7.5t7 17t14.5 22t24.5 17t36 7.5h54q3 0 7.5 -0.5t16 -4.5t20 -10.5t13.5 -21t1 -34.5l-64 -368h79z" />
<glyph unicode="o" horiz-adv-x="487" d="M317 517q6 0 16 -1t34 -9t41.5 -22t28 -44.5t3.5 -71.5l-39 -220q-1 -3 -2 -8.5t-6.5 -21t-13 -29.5t-22 -31t-31.5 -29.5t-43.5 -21t-56.5 -8.5h-55q-6 0 -16 1t-34 9t-41.5 22t-28 44.5t-3.5 72.5l39 220q1 6 3.5 16t15 35.5t30 45t51 35.5t75.5 16h55zM322 149l39 220 q0 3 0.5 7.5t-1 16.5t-6.5 21.5t-18 17t-33 7.5h-55q-3 0 -7.5 -0.5t-17.5 -4t-23.5 -10.5t-20.5 -21t-13 -34l-39 -220q-1 -3 -1 -7.5t1.5 -17t6 -22t17.5 -17t33 -7.5h55q3 0 7.5 0.5t17.5 4.5t23.5 10.5t20.5 21t14 34.5z" />
<glyph unicode="p" horiz-adv-x="498" d="M327 517q6 0 16 -1t34.5 -9t42 -22t28 -44.5t3.5 -71.5l-39 -220q-19 -110 -126 -141q-28 -8 -50 -8h-125l-39 -219h-79l130 736h33l63 -77l5 21.5t17 34t32 21.5h54zM333 149l39 220q0 3 0.5 7.5t-1 16.5t-6.5 21.5t-18.5 17t-33.5 7.5h-54q-3 0 -8 -0.5t-17.5 -4 t-23 -10.5t-21 -21t-13.5 -34l-52 -291h125q3 0 8 0.5t18 4.5t23.5 10.5t20.5 21t14 34.5z" />
<glyph unicode="q" horiz-adv-x="497" d="M434 517h32l-130 -736h-79l39 219h-125q-6 0 -16 1t-34 9t-41.5 22t-28 44.5t-3.5 72.5l39 220q7 41 28 71.5t45 44.5t48 22q22 8 38 9l16 1h55q17 0 23 -19q6 -20 4 -39l-2 -19zM309 78l52 291q5 31 -9.5 48.5t-31.5 19.5l-17 2h-55q-31 0 -51.5 -17.5t-25.5 -35.5 l-5 -17l-39 -220q-6 -32 8.5 -49.5t31.5 -19.5l17 -2h125z" />
<glyph unicode="r" horiz-adv-x="342" d="M263 439q-3 0 -7.5 -0.5t-17.5 -4t-23.5 -10.5t-20.5 -21t-13 -34l-39 -220q2 -3 -0.5 -16t8.5 -31t34 -23l-13 -78q-5 1 -14 3.5t-30 13.5t-36 25.5t-24.5 43t-3.5 62.5l65 368h32l65 -77l5 21.5t16.5 34t30.5 21.5h94l-14 -78h-94z" />
<glyph unicode="s" horiz-adv-x="438" d="M44 78l-13 -78h170q6 0 16.5 1t37.5 8.5t49 20.5t43 41t28 67q5 32 -2 57t-19 40t-37.5 29t-41 19.5t-45.5 14.5q-33 10 -50 17t-29.5 21t-9.5 33q5 31 26 48.5t39 19.5l18 2h170l14 78h-170q-6 0 -16.5 -1t-37.5 -8.5t-49 -20.5t-43.5 -41t-28.5 -67t3.5 -68t36.5 -46.5 t48.5 -26.5t56.5 -19h1q26 -8 38.5 -12.5t27.5 -13t20.5 -19t2.5 -25.5q-6 -32 -27 -49.5t-39 -19.5l-18 -2h-170z" />
<glyph unicode="t" horiz-adv-x="316" d="M311 439h-110l-51 -290q-1 -3 -1 -7.5t1.5 -17t6.5 -22t18.5 -17t33.5 -7.5h38l-13 -78h-38q-6 0 -16 1t-34.5 9t-42 22t-28 44.5t-3.5 72.5l51 290h-54l2 13l153 175h10l-19 -110h110z" />
<glyph unicode="u" horiz-adv-x="509" d="M405 149q2 -3 -0.5 -16t8.5 -31t35 -23l-13 -78q-8 2 -21 6.5t-41.5 23t-44.5 42.5q-56 -73 -97 -73h-55q-6 0 -16 1t-34 9t-41.5 22t-28 44.5t-3.5 72.5l65 368h79l-65 -368q-6 -32 8.5 -49.5t31.5 -19.5l17 -2h55q59 0 80 60l3 11l65 368h78z" />
<glyph unicode="v" horiz-adv-x="412" d="M369 517h82l-246 -517h-87l-65 517h83l41 -426z" />
<glyph unicode="w" horiz-adv-x="719" d="M676 517h82l-247 -517h-86l-47 367l-174 -367h-86l-65 517h82l40 -423l185 379h75l51 -379z" />
<glyph unicode="x" horiz-adv-x="421" d="M450 517l-185 -258l94 -259h-85l-73 208l-144 -208h-85l184 259l-93 258h85l71 -208l146 208h85z" />
<glyph unicode="y" horiz-adv-x="502" d="M392 517h79l-104 -588q-7 -41 -28 -71.5t-45 -44.5t-48 -22q-22 -8 -38 -9l-16 -1h-171l14 78h171q31 0 51.5 17.5t25.5 35.5l5 17l13 71h-125q-6 0 -16 1t-34 9t-41.5 22t-28 44.5t-3.5 72.5l65 368h79l-65 -368q-6 -32 8.5 -49.5t31.5 -19.5l17 -2h125z" />
<glyph unicode="z" horiz-adv-x="391" d="M390 517l-10 -57l-266 -382h198l-13 -78h-297l10 59l272 380h-205l14 78h297z" />
<glyph unicode="{" horiz-adv-x="320" d="M200 -165h18l14 78h-18q-70 0 -57 72l29 164q1 4 1.5 10.5t-1.5 22.5t-8 28.5t-22 23t-41 10.5l5 29q71 0 99 76l6 20l28 164q12 69 84 71h17l14 78h-18q-54 0 -107.5 -37t-67.5 -112l-28 -164q-4 -25 -35.5 -45t-60.5 -28l-29 -7l-10 -60q22 -4 42 -10.5t39.5 -25 t14.5 -44.5l-29 -165q-10 -54 18.5 -101.5t102.5 -47.5z" />
<glyph unicode="|" horiz-adv-x="204" d="M2 -165h50l150 847h-50z" />
<glyph unicode="}" horiz-adv-x="320" d="M-30 -165h-17l13 78h18q70 0 83 72l29 164l2.5 10.5t9 22.5t18 28.5t30.5 23t45 10.5l5 29q-67 0 -72 68l1 28l28 164q12 69 -58 71h-17l14 78h18q24 0 47 -8t43 -24.5t29 -47t2 -69.5l-28 -164q-4 -25 19.5 -45t49.5 -28l26 -7l-10 -60q-23 -4 -45.5 -10.5t-48 -25 t-30.5 -44.5l-29 -165q-10 -54 -55.5 -101.5t-119.5 -47.5z" />
<glyph unicode="~" horiz-adv-x="600" d="M115 219l-80 1q16 53 60.5 93t112.5 40q33 0 60 -12.5t37.5 -23t27.5 -30.5q15 -19 22.5 -26t20.5 -12.5t31 -5.5q61 0 80 57q15 0 40 -0.5t38 -0.5q-14 -52 -58.5 -93t-112.5 -41q-33 0 -60.5 13t-37.5 23t-29 31h1q-20 25 -33.5 34t-40.5 9q-62 0 -79 -56z" />
<glyph unicode="&#xa1;" horiz-adv-x="238" d="M233 683h-79l-14 -78h79zM39 87l-15 -86h100l15 86q6 63 17 189.5t17 187.5h-37z" />
<glyph unicode="&#xa2;" horiz-adv-x="517" d="M448 134q-78 -51 -163 -51q-29 0 -55 6l-32 -89h-46l38 103q-66 30 -99 94.5t-19 144.5q19 106 106.5 181t192.5 77l31 82h47l-31 -85q59 -10 103 -48l-59 -62q-32 27 -73 33l-130 -354q20 -5 40 -5q60 0 113 36zM150 342q-10 -52 9 -94.5t60 -65.5l123 339 q-69 -8 -124.5 -59t-67.5 -120z" />
<glyph unicode="&#xa3;" horiz-adv-x="473" d="M133 479q-10 -52 -1 -115h-85l-8 -45h97q5 -69 -3 -115q-6 -37 -40.5 -67.5t-65.5 -42.5l-31 -13q-3 -15 -7 -43t-6 -38h408l13 78h-321q5 2 13 5.5t28.5 16t37 26t31.5 35t19 43.5q6 29 1 115h178l8 45h-192q-5 60 4 115q3 15 10 32t22 40t45.5 38t70.5 15h94l14 78h-94 q-53 0 -98 -20t-73.5 -51.5t-45.5 -65t-23 -66.5z" />
<glyph unicode="&#xa4;" horiz-adv-x="702" d="M608 341q-15 -82 -83 -155l121 -147l-36 -32l-122 148q-86 -57 -164 -57q-83 0 -146 57l-173 -148l-27 32l174 147q-42 76 -28 155q13 79 83 155l-122 147l37 31l122 -146q86 55 165 55t145 -55l173 146l26 -31l-173 -147q42 -73 28 -155zM338 177q67 0 123.5 48 t68.5 116q11 67 -28 115.5t-106 48.5q-68 0 -125 -48.5t-68 -115.5q-12 -68 27.5 -116t107.5 -48z" />
<glyph unicode="&#xa5;" horiz-adv-x="466" d="M57 262l8 46h130l-113 374h86l85 -309l194 309h87l-246 -374h130l-8 -46h-137l-15 -85h137l-8 -46h-137l-24 -132h-79l24 132h-137l8 46h137l15 85h-137z" />
<glyph unicode="&#xa6;" horiz-adv-x="205" d="M152 682h51l-62 -353h-51zM2 -165l63 353h51l-63 -353h-51z" />
<glyph unicode="&#xa7;" horiz-adv-x="447" d="M314 182l4 -3l7.5 -5.5l9.5 -7t9.5 -10.5l8.5 -14t7.5 -18t4 -22.5t1 -28t-3.5 -33.5q-20 -111 -126 -142q-28 -8 -50 -8h-149l14 79h149q3 0 7.5 0.5t17.5 4.5t23.5 10.5t20.5 21t14 34.5q5 31 -9.5 48.5t-31.5 19.5l-17 2h-55q-6 0 -16 1t-34 9t-41.5 22t-28 44.5 t-3.5 72.5q15 85 108 137q-75 50 -60 137q20 110 126 141q28 8 50 8h149l-14 -78h-149q-3 0 -7.5 -0.5t-17.5 -4.5t-23.5 -10.5t-20.5 -21t-14 -34.5q-5 -31 9.5 -48.5t31.5 -19.5l17 -2h55q6 0 16 -1t34 -9t41.5 -22t28 -45t3.5 -73q-8 -45 -36 -79t-60 -52zM321 259l10 54 q0 3 0.5 7.5t-1 17t-6.5 22t-18 17t-33 7.5h-55q-3 0 -7.5 -0.5t-17.5 -4.5t-23.5 -10.5t-20.5 -21t-13 -34.5l-10 -54q0 -3 -0.5 -7.5t1 -17t6.5 -22t18 -17t33 -7.5h55q3 0 7.5 0.5t17.5 4.5t23.5 10.5t20.5 21t13 34.5z" />
<glyph unicode="&#xa8;" horiz-adv-x="356" d="M393 704l-16 -87h-88l16 87h88zM209 704l-16 -87h-88l16 87h88z" />
<glyph unicode="&#xa9;" horiz-adv-x="796" d="M473 683q141 0 223.5 -100.5t57.5 -241.5q-26 -141 -143 -241t-258 -100t-223.5 100t-57.5 241t142.5 241.5t258.5 100.5zM364 68q113 0 207.5 80t114.5 193t-46 193.5t-179 80.5t-207 -80.5t-114 -193.5t45.5 -193t178.5 -80zM561 470l-51 -44q-30 30 -72 30 q-51 0 -88 -32.5t-45 -82.5q-9 -51 16 -82.5t77 -31.5q46 0 83 30q8 -9 20.5 -25.5t14.5 -18.5q-62 -48 -128 -48q-79 0 -119 49t-26 128q13 77 73.5 126t133.5 49q68 0 111 -47z" />
<glyph unicode="&#xaa;" horiz-adv-x="286" d="M244 683q28 0 48 -18.5t14 -55.5l-19 -107q-5 -27 -28 -51t-60 -24h-52q-28 0 -48.5 19t-13.5 56q3 16 13 29t20.5 21t31.5 16t34 11.5t39.5 10t37.5 9.5l2 10q5 31 -27 31h-105l8 43h105zM42 256l7 43h202l-7 -43h-202zM57 341l7 43h202l-7 -43h-202zM244 502l9 53 q-7 -1 -23 -4.5l-24.5 -5.5t-22 -6t-21.5 -7t-16.5 -8t-13 -10.5t-5.5 -11.5q-5 -30 27 -32h52q33 0 38 32z" />
<glyph unicode="&#xab;" horiz-adv-x="568" d="M415 55l-158 204l230 204h90l-226 -204l154 -204h-90zM184 55l-157 204l229 204h90l-226 -204l154 -204h-90z" />
<glyph unicode="&#xac;" horiz-adv-x="492" d="M65 386h408l-43 -243h-79l29 164h-329z" />
<glyph unicode="&#xad;" horiz-adv-x="381" d="M49 298h297l-14 -79h-297z" />
<glyph unicode="&#xae;" horiz-adv-x="497" d="M324 683q85 0 134.5 -61t34.5 -146q-15 -86 -86 -146t-156 -60q-86 0 -136 60.5t-35 145.5t87 146t157 61zM259 314q66 0 121.5 47.5t66.5 114.5q12 67 -26.5 114t-104.5 47q-67 0 -122.5 -47t-67.5 -114q-11 -67 27.5 -114.5t105.5 -47.5zM366 514q-3 -17 -13.5 -29 t-19.5 -16l-9 -4l32 -84h-35l-27 80h-57l-14 -80h-29l33 189h94q20 0 35 -14.5t10 -41.5zM307 489q26 0 30 25q5 27 -21 27h-65l-9 -52h65z" />
<glyph unicode="&#xaf;" horiz-adv-x="335" d="M109 638h251l10 55h-251z" />
<glyph unicode="&#xb0;" horiz-adv-x="275" d="M100 586q7 40 40 68.5t73 28.5t62.5 -28.5t15.5 -68.5q-7 -39 -39.5 -67.5t-72.5 -28.5t-63 28.5t-16 67.5zM141 586q-4 -22 9.5 -38t35.5 -16t41 16t23 38q4 23 -9.5 38.5t-35.5 15.5q-23 0 -41.5 -15.5t-22.5 -38.5z" />
<glyph unicode="&#xb1;" horiz-adv-x="437" d="M280 380h137l-14 -78h-137l-24 -137h-79l24 137h-137l14 78h137l24 137h79zM-3 0l13 78h353l-13 -78h-353z" />
<glyph unicode="&#xb2;" horiz-adv-x="303" d="M319 589q-6 -32 -26 -65t-45.5 -57t-49.5 -44q-24 -21 -40 -31l-17 -10h142l-9 -53h-208l10 57q7 4 18.5 11.5t42 30t55 45.5t46.5 55t27 61q7 35 -31 40h-35q-32 0 -43 -35q-12 0 -28.5 1t-25.5 1q10 34 37.5 60t69.5 26h34q34 0 59.5 -23t16.5 -70z" />
<glyph unicode="&#xb3;" horiz-adv-x="303" d="M243 682q4 0 10 -0.5t21 -5.5t26 -14t17.5 -28.5t1.5 -45.5q-6 -38 -53 -83q32 -40 25 -78q-13 -75 -88 -94l-23 -4h-33q-77 0 -77 88h55q-3 -16 5 -24.5t17 -9.5l9 -1h34q17 0 28.5 11t14.5 22l3 11q3 20 0 32.5t-12 17t-14 5.5t-16 2h-13q1 9 4.5 24t3.5 17h9 q24 0 40.5 15t20.5 29l4 15q-1 2 0.5 12t-6 21.5t-24.5 11.5h-34q-30 1 -43 -34h-55q1 4 4 9.5t13 21t21.5 27t30.5 21t39 9.5h34z" />
<glyph unicode="&#xb4;" horiz-adv-x="237" d="M279 736h-82l-96 -141h60z" />
<glyph unicode="&#xb5;" horiz-adv-x="514" d="M453 79l-13 -78q-8 2 -21 6.5t-41.5 23t-44.5 42.5q-56 -73 -97 -73h-55q-24 0 -68 15l-41 -234h-79l130 736h79l-65 -368q-6 -32 8.5 -49.5t31.5 -19.5l17 -2h55q59 0 80 60l3 11l65 368h78l-65 -368q2 -3 -0.5 -16t8.5 -31t35 -23z" />
<glyph unicode="&#xb6;" horiz-adv-x="556" d="M66 479q14 81 79 140t145 63l-72 -407q-79 4 -122.5 63t-29.5 141zM237 -110l140 792h45l-140 -792h-45zM509 682h45l-140 -792h-45z" />
<glyph unicode="&#xb7;" horiz-adv-x="181" d="M34 211l17 96h97l-17 -96h-97z" />
<glyph unicode="&#xb8;" horiz-adv-x="246" d="M83 -57l16 91h-65l-17 -99h1q21 0 34.5 -16t9.5 -37q-4 -22 -23 -38t-40 -16h-33l-7 -44h32q64 0 101 23t43 58q7 39 -13 58.5t-39 19.5z" />
<glyph unicode="&#xb9;" horiz-adv-x="271" d="M237 682l-53 -300h67l-9 -53h-187l9 53h67l43 246h-67l10 54h120z" />
<glyph unicode="&#xba;" horiz-adv-x="286" d="M245 683q3 0 8 -0.5t17 -4.5t20.5 -11t14 -22t1.5 -36l-19 -107q-1 -3 -2 -8t-7.5 -18t-15 -23t-25 -18t-37.5 -8h-53q-3 0 -8 0.5t-17 4.5t-21 11t-14.5 22.5t-1.5 36.5l19 107q1 3 2 8t7.5 18t15 22.5t25.5 17.5t38 8h53zM245 502l19 107q-1 1 0 8t-6 15t-21 8h-53 q-32 0 -37 -31l-19 -107q1 -1 -0.5 -8t5.5 -15.5t21 -8.5h53q32 0 38 32zM42 256l7 43h202l-7 -43h-202zM57 341l7 43h202l-7 -43h-202z" />
<glyph unicode="&#xbb;" horiz-adv-x="568" d="M222 55h90l229 204l-157 204h-90l154 -204zM-9 55h90l230 204l-158 204h-90l154 -204z" />
<glyph unicode="&#xbc;" horiz-adv-x="725" d="M611 119h32l-9 -53h-32l-12 -67h-55l12 67h-140l11 59l125 227h59l-134 -233h88l12 67h55zM252 682l-53 -300h67l-9 -53h-187l9 53h67l43 246h-67l10 54h120zM155 0h-60l528 682h60z" />
<glyph unicode="&#xbd;" horiz-adv-x="738" d="M252 682l-53 -300h67l-9 -53h-187l9 53h66l43 246h-66l10 54h120zM681 260q-6 -32 -26 -65t-45.5 -57t-49.5 -44t-40 -30l-17 -11h142l-9 -53h-208l10 57q7 4 18.5 11.5t42 30t55 45.5t46.5 55t27 61q7 35 -31 40h-35q-32 0 -43 -35h-55q11 35 38.5 61.5t69.5 26.5h34 q34 0 59.5 -23t16.5 -70zM155 0h-60l528 682h60z" />
<glyph unicode="&#xbe;" horiz-adv-x="727" d="M257 682q4 0 10 -0.5t21 -5.5t26 -14t17.5 -28.5t1.5 -45.5q-6 -39 -52 -83q31 -39 24 -78q-13 -75 -88 -94l-23 -4h-32q-45 0 -61.5 28t-15.5 60h54q-1 -31 32 -35h33q17 0 29 11t15 22l3 11q3 20 0 32.5t-12.5 17t-14.5 5.5t-15 2h-14q1 9 4.5 24t3.5 17h10 q24 0 40.5 15t20.5 29l4 15q-1 2 0.5 12t-6.5 21.5t-25 11.5h-33q-30 1 -44 -34h-54q1 4 4 9.5t13 21t21.5 27t30.5 21t39 9.5h33zM614 120h32l-10 -53h-32l-11 -67h-55l11 67h-141l11 59l125 227h60l-133 -233h88l11 67h55zM154 0h-60l528 682h60z" />
<glyph unicode="&#xbf;" horiz-adv-x="437" d="M147 2q-24 0 -47.5 8t-43.5 24.5t-29.5 47t-2.5 69.5q5 30 24 60.5t35 47l48 47.5l34.5 33t40.5 40.5t25.5 36.5t20.5 49h48q-22 -113 -118 -209q-27 -26 -40 -40t-24.5 -31.5t-14.5 -33.5q-7 -38 10.5 -54t46.5 -17h55q59 2 79 55h80q-11 -47 -42.5 -78.5t-64.5 -43 t-65 -11.5h-55zM360 683l-17 -96h-97l17 96h97z" />
<glyph unicode="&#xc0;" horiz-adv-x="461" d="M357 682l62 -682h-79l-11 110h-250l-48 -110h-79l301 682h104zM115 188h206l-23 410h-16zM192 884h82q20 -58 46 -141h-59z" />
<glyph unicode="&#xc1;" horiz-adv-x="461" d="M357 682l62 -682h-79l-11 110h-250l-48 -110h-79l301 682h104zM115 188h206l-23 410h-16zM436 884h-82l-96 -141h60z" />
<glyph unicode="&#xc2;" horiz-adv-x="461" d="M357 682l62 -682h-79l-11 110h-250l-48 -110h-79l301 682h104zM115 188h206l-23 410h-16zM360 744h71l-89 141h-55l-137 -141h71l84 88z" />
<glyph unicode="&#xc3;" horiz-adv-x="461" d="M357 682l62 -682h-79l-11 110h-250l-48 -110h-79l301 682h104zM115 188h206l-23 410h-16zM369 822q37 0 61 52h35q-13 -39 -45 -80t-63 -41q-14 0 -63 28q-44 24 -58 24q-34 0 -60 -52h-34q13 39 45 80t62 41q15 0 64 -28q41 -24 56 -24z" />
<glyph unicode="&#xc4;" horiz-adv-x="461" d="M357 682l62 -682h-79l-11 110h-250l-48 -110h-79l301 682h104zM115 188h206l-23 410h-16zM445 852l-16 -87h-88l16 87h88zM261 852l-16 -87h-88l16 87h88z" />
<glyph unicode="&#xc5;" horiz-adv-x="461" d="M357 682l62 -682h-79l-11 110h-250l-48 -110h-79l301 682h104zM115 188h206l-23 410h-16zM210 813q7 38 38.5 65.5t69.5 27.5t61 -27.5t16 -65.5t-39 -65t-70 -27t-60.5 27.5t-15.5 64.5zM253 813q-4 -21 7.5 -35t32.5 -14t37.5 14t20.5 35t-8 35t-33 14t-37 -14t-20 -35 z" />
<glyph unicode="&#xc6;" horiz-adv-x="787" d="M657 604q-15 -1 -30 -4t-41.5 -12.5t-46 -34.5t-26.5 -61q-5 -29 2.5 -51t20.5 -33.5t31.5 -18t30 -8t21.5 -1.5h94l-14 -78h-94q-14 0 -30.5 -3t-42 -13t-45.5 -35t-27 -61q-5 -29 2.5 -51t20 -33.5t31 -18t30 -8t21.5 -1.5h148l-13 -78h-148q-57 0 -119 36l-6 -36h-78 l19 110h-266l-74 -110h-86l465 682h140l-6 -35q76 35 131 35h148l-14 -78h-149zM381 188l2 15q17 75 100 137q-63 67 -49 152l17 96h-26l-270 -400h226z" />
<glyph unicode="&#xc7;" horiz-adv-x="507" d="M239 -57l10 59q129 14 185 133q14 29 18 53h-79l-3 -11.5t-12 -26.5t-24.5 -33.5t-42 -26.5t-62.5 -12t-58.5 13t-32 31.5t-12.5 37.5q-4 18 -2 31l2 13l49 275q1 5 3 13.5t12.5 30t25.5 38t43 30t63 13.5t58.5 -11.5t32.5 -27.5t13 -32q3 -15 2 -27l-1 -12h79 q2 0 3.5 19.5t-4.5 47t-20.5 55t-53 47t-95.5 19.5q-147 0 -214 -132q-20 -39 -26 -71l-49 -275q-1 -4 -1.5 -10.5t-0.5 -26t2.5 -37t11.5 -40t23.5 -40t41 -31t60.5 -17.5l-11 -67h1q21 0 34.5 -16t9.5 -37q-4 -22 -23 -38t-40 -16h-33l-7 -44h32q64 0 101 23t43 58 q7 39 -13 58.5t-39 19.5z" />
<glyph unicode="&#xc8;" horiz-adv-x="453" d="M379 78l-13 -78h-150q-33 0 -65 10.5t-60 31.5t-41.5 59.5t-4.5 88.5q16 88 103 151q-65 63 -50 151q12 65 55 110t90.5 62.5t92.5 17.5h150l-14 -78h-150l-21.5 -2t-32.5 -8t-38 -17.5t-32 -32.5t-21 -52q-5 -29 2.5 -51t21 -33.5t32 -18t30 -8t20.5 -1.5h94l-14 -78 h-94q-13 0 -29.5 -3t-42.5 -13t-46 -35t-27 -61q-5 -29 2.5 -51t20.5 -33.5t31.5 -18t30 -8t20.5 -1.5h150zM223 884h82q20 -58 46 -141h-59z" />
<glyph unicode="&#xc9;" horiz-adv-x="453" d="M379 78l-13 -78h-150q-33 0 -65 10.5t-60 31.5t-41.5 59.5t-4.5 88.5q16 88 103 151q-65 63 -50 151q12 65 55 110t90.5 62.5t92.5 17.5h150l-14 -78h-150l-21.5 -2t-32.5 -8t-38 -17.5t-32 -32.5t-21 -52q-5 -29 2.5 -51t21 -33.5t32 -18t30 -8t20.5 -1.5h94l-14 -78 h-94q-13 0 -29.5 -3t-42.5 -13t-46 -35t-27 -61q-5 -29 2.5 -51t20.5 -33.5t31.5 -18t30 -8t20.5 -1.5h150zM467 884h-82l-96 -141h60z" />
<glyph unicode="&#xca;" horiz-adv-x="453" d="M379 78l-13 -78h-150q-33 0 -65 10.5t-60 31.5t-41.5 59.5t-4.5 88.5q16 88 103 151q-65 63 -50 151q12 65 55 110t90.5 62.5t92.5 17.5h150l-14 -78h-150l-21.5 -2t-32.5 -8t-38 -17.5t-32 -32.5t-21 -52q-5 -29 2.5 -51t21 -33.5t32 -18t30 -8t20.5 -1.5h94l-14 -78 h-94q-13 0 -29.5 -3t-42.5 -13t-46 -35t-27 -61q-5 -29 2.5 -51t20.5 -33.5t31.5 -18t30 -8t20.5 -1.5h150zM391 744h71l-89 141h-55l-137 -141h71l84 88z" />
<glyph unicode="&#xcb;" horiz-adv-x="453" d="M379 78l-13 -78h-150q-33 0 -65 10.5t-60 31.5t-41.5 59.5t-4.5 88.5q16 88 103 151q-65 63 -50 151q12 65 55 110t90.5 62.5t92.5 17.5h150l-14 -78h-150l-21.5 -2t-32.5 -8t-38 -17.5t-32 -32.5t-21 -52q-5 -29 2.5 -51t21 -33.5t32 -18t30 -8t20.5 -1.5h94l-14 -78 h-94q-13 0 -29.5 -3t-42.5 -13t-46 -35t-27 -61q-5 -29 2.5 -51t20.5 -33.5t31.5 -18t30 -8t20.5 -1.5h150zM476 852l-16 -87h-88l16 87h88zM292 852l-16 -87h-88l16 87h88z" />
<glyph unicode="&#xcc;" horiz-adv-x="233" d="M32 0h79l120 682h-79zM79 884h82q20 -58 46 -141h-59z" />
<glyph unicode="&#xcd;" horiz-adv-x="233" d="M32 0h79l120 682h-79zM323 884h-82l-96 -141h60z" />
<glyph unicode="&#xce;" horiz-adv-x="233" d="M32 0h79l120 682h-79zM247 744h71l-89 141h-55l-137 -141h71l84 88z" />
<glyph unicode="&#xcf;" horiz-adv-x="233" d="M32 0h79l120 682h-79zM332 852l-16 -87h-88l16 87h88zM148 852l-16 -87h-88l16 87h88z" />
<glyph unicode="&#xd0;" horiz-adv-x="541" d="M10 257l-11 42l90 34l62 349h204q3 0 7 -0.5t18 -2t26.5 -5t30.5 -10.5t30.5 -17t27.5 -25t21 -35.5t10.5 -47t-3.5 -60.5l-49 -275q-1 -8 -5 -22t-21 -49t-40.5 -62t-69.5 -49t-103 -22h-204l49 283l-35 -13zM395 204l49 275q6 35 -2.5 61t-24.5 37.5t-33.5 18 t-29.5 7.5l-13 1h-126l-42 -239q44 15 83 31q2 -11 4.5 -23.5t3.5 -18.5l-100 -38l-42 -238h126q97 0 137 93z" />
<glyph unicode="&#xd1;" horiz-adv-x="562" d="M481 682h79l-120 -682h-84l-154 521l-91 -521h-79l120 682h84l154 -514zM421 822q37 0 61 52h35q-13 -39 -45 -80t-63 -41q-14 0 -63 28q-44 24 -58 24q-34 0 -60 -52h-34q13 39 45 80t62 41q15 0 64 -28q41 -24 56 -24z" />
<glyph unicode="&#xd2;" d="M336 682q140 0 166 -120q9 -44 2 -83l-49 -275q-1 -8 -5 -22t-21 -49t-40.5 -62t-69.5 -49t-103 -22q-42 0 -73.5 11.5t-49 29t-29.5 39.5t-15 44t-4 40q-1 16 1 28l1 12l49 275q1 8 5 22t21 49t41 61.5t70 48.5t103 22zM376 204l49 275q1 5 1.5 13.5t-2.5 30t-11.5 38 t-32 30t-58.5 13.5t-63 -13t-43 -31t-25 -36.5t-13 -31.5l-3 -13l-49 -275q-1 -5 -1.5 -13.5t2.5 -30.5t11.5 -38.5t32 -30t58.5 -13.5q97 0 137 93zM223 884h82q20 -58 46 -141h-59z" />
<glyph unicode="&#xd3;" d="M336 682q140 0 166 -120q9 -44 2 -83l-49 -275q-1 -8 -5 -22t-21 -49t-40.5 -62t-69.5 -49t-103 -22q-42 0 -73.5 11.5t-49 29t-29.5 39.5t-15 44t-4 40q-1 16 1 28l1 12l49 275q1 8 5 22t21 49t41 61.5t70 48.5t103 22zM376 204l49 275q1 5 1.5 13.5t-2.5 30t-11.5 38 t-32 30t-58.5 13.5t-63 -13t-43 -31t-25 -36.5t-13 -31.5l-3 -13l-49 -275q-1 -5 -1.5 -13.5t2.5 -30.5t11.5 -38.5t32 -30t58.5 -13.5q97 0 137 93zM467 884h-82l-96 -141h60z" />
<glyph unicode="&#xd4;" d="M336 682q140 0 166 -120q9 -44 2 -83l-49 -275q-1 -8 -5 -22t-21 -49t-40.5 -62t-69.5 -49t-103 -22q-42 0 -73.5 11.5t-49 29t-29.5 39.5t-15 44t-4 40q-1 16 1 28l1 12l49 275q1 8 5 22t21 49t41 61.5t70 48.5t103 22zM376 204l49 275q1 5 1.5 13.5t-2.5 30t-11.5 38 t-32 30t-58.5 13.5t-63 -13t-43 -31t-25 -36.5t-13 -31.5l-3 -13l-49 -275q-1 -5 -1.5 -13.5t2.5 -30.5t11.5 -38.5t32 -30t58.5 -13.5q97 0 137 93zM391 744h71l-89 141h-55l-137 -141h71l84 88z" />
<glyph unicode="&#xd5;" d="M336 682q140 0 166 -120q9 -44 2 -83l-49 -275q-1 -8 -5 -22t-21 -49t-40.5 -62t-69.5 -49t-103 -22q-42 0 -73.5 11.5t-49 29t-29.5 39.5t-15 44t-4 40q-1 16 1 28l1 12l49 275q1 8 5 22t21 49t41 61.5t70 48.5t103 22zM376 204l49 275q1 5 1.5 13.5t-2.5 30t-11.5 38 t-32 30t-58.5 13.5t-63 -13t-43 -31t-25 -36.5t-13 -31.5l-3 -13l-49 -275q-1 -5 -1.5 -13.5t2.5 -30.5t11.5 -38.5t32 -30t58.5 -13.5q97 0 137 93zM400 822q37 0 61 52h35q-13 -39 -45 -80t-63 -41q-14 0 -63 28q-44 24 -58 24q-34 0 -60 -52h-34q13 39 45 80t62 41 q15 0 64 -28q41 -24 56 -24z" />
<glyph unicode="&#xd6;" d="M336 682q140 0 166 -120q9 -44 2 -83l-49 -275q-1 -8 -5 -22t-21 -49t-40.5 -62t-69.5 -49t-103 -22q-42 0 -73.5 11.5t-49 29t-29.5 39.5t-15 44t-4 40q-1 16 1 28l1 12l49 275q1 8 5 22t21 49t41 61.5t70 48.5t103 22zM376 204l49 275q1 5 1.5 13.5t-2.5 30t-11.5 38 t-32 30t-58.5 13.5t-63 -13t-43 -31t-25 -36.5t-13 -31.5l-3 -13l-49 -275q-1 -5 -1.5 -13.5t2.5 -30.5t11.5 -38.5t32 -30t58.5 -13.5q97 0 137 93zM476 852l-16 -87h-88l16 87h88zM292 852l-16 -87h-88l16 87h88z" />
<glyph unicode="&#xd7;" horiz-adv-x="426" d="M364 142l-65 -54l-96 116l-137 -117l-44 55l137 117l-96 116l63 55l97 -117l137 117l45 -55l-138 -116z" />
<glyph unicode="&#xd8;" horiz-adv-x="512" d="M28 -8l-35 25l60 75q-9 26 -11 54q-4 28 -2 43l2 15l49 275q1 8 5 22t21 49t41 61.5t70 48.5t103 22q80 0 136 -54q22 29 47 59q10 -6 33 -25l-59 -74q20 -58 11 -109l-49 -275q-1 -8 -5 -22t-21 -49t-40.5 -62t-69.5 -49t-103 -22q-81 0 -136 53q-5 -6 -22 -29t-25 -32z M170 479l-54 -306l293 382q-30 49 -92 49q-35 0 -63 -13t-43 -31t-25 -36.5t-13 -31.5zM371 204l54 302l-293 -380q33 -48 92 -48q97 0 137 93z" />
<glyph unicode="&#xd9;" horiz-adv-x="542" d="M471 681h79l-85 -477q-1 -8 -5 -22t-21 -49t-40.5 -62t-69.5 -49t-103 -22q-42 0 -73.5 11.5t-49 29t-29.5 39.5t-15 44t-4 40q-1 16 1 28l1 12l85 477h79l-85 -477q-1 -5 -1.5 -13.5t2.5 -30.5t11.5 -38.5t32 -30t58.5 -13.5q97 0 137 93l10 33zM233 884h82 q20 -58 46 -141h-59z" />
<glyph unicode="&#xda;" horiz-adv-x="542" d="M471 681h79l-85 -477q-1 -8 -5 -22t-21 -49t-40.5 -62t-69.5 -49t-103 -22q-42 0 -73.5 11.5t-49 29t-29.5 39.5t-15 44t-4 40q-1 16 1 28l1 12l85 477h79l-85 -477q-1 -5 -1.5 -13.5t2.5 -30.5t11.5 -38.5t32 -30t58.5 -13.5q97 0 137 93l10 33zM477 884h-82l-96 -141 h60z" />
<glyph unicode="&#xdb;" horiz-adv-x="542" d="M471 681h79l-85 -477q-1 -8 -5 -22t-21 -49t-40.5 -62t-69.5 -49t-103 -22q-42 0 -73.5 11.5t-49 29t-29.5 39.5t-15 44t-4 40q-1 16 1 28l1 12l85 477h79l-85 -477q-1 -5 -1.5 -13.5t2.5 -30.5t11.5 -38.5t32 -30t58.5 -13.5q97 0 137 93l10 33zM401 744h71l-89 141h-55 l-137 -141h71l84 88z" />
<glyph unicode="&#xdc;" horiz-adv-x="542" d="M471 681h79l-85 -477q-1 -8 -5 -22t-21 -49t-40.5 -62t-69.5 -49t-103 -22q-42 0 -73.5 11.5t-49 29t-29.5 39.5t-15 44t-4 40q-1 16 1 28l1 12l85 477h79l-85 -477q-1 -5 -1.5 -13.5t2.5 -30.5t11.5 -38.5t32 -30t58.5 -13.5q97 0 137 93l10 33zM486 852l-16 -87h-88 l16 87h88zM302 852l-16 -87h-88l16 87h88z" />
<glyph unicode="&#xdd;" horiz-adv-x="428" d="M516 682l-256 -388l-51 -294h-79l51 294l-119 388h88l84 -308l195 308h87zM420 884h-82l-96 -141h60z" />
<glyph unicode="&#xde;" horiz-adv-x="512" d="M206 541h125q3 0 7 -0.5t18 -2t26.5 -5t30.5 -10.5t30.5 -17t27.5 -25.5t21 -35.5t10.5 -47t-3.5 -61q-25 -143 -161 -188q-44 -15 -79 -15h-125l-23 -134h-79l120 682h79zM273 212q5 0 13.5 0.5t31.5 7.5t41.5 18.5t36.5 37.5t24 61t-2.5 61t-24.5 38t-33.5 18.5 t-29.5 7.5l-13 1h-125l-44 -251h125z" />
<glyph unicode="&#xdf;" horiz-adv-x="553" d="M327 369q-3 -13 1 -23.5t16 -19.5t21.5 -14t30.5 -14q27 -12 44 -22t37 -28t27.5 -43t2.5 -56q-7 -42 -28 -72.5t-45 -44.5t-48 -22q-22 -8 -38 -9l-16 -1h-94l13 78h94q3 0 8 0.5t18 4.5t23.5 10.5t20.5 21t14 34.5q4 22 -8 39t-26.5 25t-44.5 21q-27 11 -42 19.5 t-34 24.5t-25 38.5t-1 52.5q4 23 20 47.5t28 36.5l38 37q65 60 72 98q6 31 -8.5 48.5t-31.5 19.5l-17 2h-45q-60 0 -81 -59l-3 -11l-116 -659q-7 -41 -27 -71.5t-46 -45t-46 -21.5t-39 -9l14 78q24 0 40 17t20 35l5 17l116 659q19 110 126 141q28 8 50 8h45q6 0 16 -1t34 -9 t41.5 -22t28 -44.5t3.5 -72.5q-4 -24 -21.5 -51t-30 -40t-40.5 -40l-32 -32.5t-20.5 -26t-13.5 -29.5z" />
<glyph unicode="&#xe0;" horiz-adv-x="504" d="M443 79l-13 -78q-8 2 -21 6.5t-41.5 23t-44.5 42.5q-54 -73 -97 -73h-54q-6 0 -16 1t-34.5 9t-42 22t-28 44.5t-3.5 72.5l39 220q1 6 3.5 16t15.5 35.5t30.5 45t51 35.5t75.5 16h203l-65 -368q2 -3 -0.5 -16t8.5 -31t34 -23zM239 78q20 0 36 7.5t24.5 17.5t14 20.5 t7.5 18.5l2 7l51 290h-125q-32 0 -52.5 -17.5t-25.5 -35.5l-5 -17l-39 -220q-11 -58 45 -69l13 -2h54zM208 736h82q20 -58 46 -141h-59z" />
<glyph unicode="&#xe1;" horiz-adv-x="504" d="M443 79l-13 -78q-8 2 -21 6.5t-41.5 23t-44.5 42.5q-54 -73 -97 -73h-54q-6 0 -16 1t-34.5 9t-42 22t-28 44.5t-3.5 72.5l39 220q1 6 3.5 16t15.5 35.5t30.5 45t51 35.5t75.5 16h203l-65 -368q2 -3 -0.5 -16t8.5 -31t34 -23zM239 78q20 0 36 7.5t24.5 17.5t14 20.5 t7.5 18.5l2 7l51 290h-125q-32 0 -52.5 -17.5t-25.5 -35.5l-5 -17l-39 -220q-11 -58 45 -69l13 -2h54zM452 736h-82l-96 -141h60z" />
<glyph unicode="&#xe2;" horiz-adv-x="504" d="M443 79l-13 -78q-8 2 -21 6.5t-41.5 23t-44.5 42.5q-54 -73 -97 -73h-54q-6 0 -16 1t-34.5 9t-42 22t-28 44.5t-3.5 72.5l39 220q1 6 3.5 16t15.5 35.5t30.5 45t51 35.5t75.5 16h203l-65 -368q2 -3 -0.5 -16t8.5 -31t34 -23zM239 78q20 0 36 7.5t24.5 17.5t14 20.5 t7.5 18.5l2 7l51 290h-125q-32 0 -52.5 -17.5t-25.5 -35.5l-5 -17l-39 -220q-11 -58 45 -69l13 -2h54zM376 596h71l-89 141h-55l-137 -141h71l84 88z" />
<glyph unicode="&#xe3;" horiz-adv-x="504" d="M443 79l-13 -78q-8 2 -21 6.5t-41.5 23t-44.5 42.5q-54 -73 -97 -73h-54q-6 0 -16 1t-34.5 9t-42 22t-28 44.5t-3.5 72.5l39 220q1 6 3.5 16t15.5 35.5t30.5 45t51 35.5t75.5 16h203l-65 -368q2 -3 -0.5 -16t8.5 -31t34 -23zM239 78q20 0 36 7.5t24.5 17.5t14 20.5 t7.5 18.5l2 7l51 290h-125q-32 0 -52.5 -17.5t-25.5 -35.5l-5 -17l-39 -220q-11 -58 45 -69l13 -2h54zM385 674q37 0 61 52h35q-13 -39 -45 -80t-63 -41q-14 0 -63 28q-44 24 -58 24q-34 0 -60 -52h-34q13 39 45 80t62 41q15 0 64 -28q41 -24 56 -24z" />
<glyph unicode="&#xe4;" horiz-adv-x="504" d="M443 79l-13 -78q-8 2 -21 6.5t-41.5 23t-44.5 42.5q-54 -73 -97 -73h-54q-6 0 -16 1t-34.5 9t-42 22t-28 44.5t-3.5 72.5l39 220q1 6 3.5 16t15.5 35.5t30.5 45t51 35.5t75.5 16h203l-65 -368q2 -3 -0.5 -16t8.5 -31t34 -23zM239 78q20 0 36 7.5t24.5 17.5t14 20.5 t7.5 18.5l2 7l51 290h-125q-32 0 -52.5 -17.5t-25.5 -35.5l-5 -17l-39 -220q-11 -58 45 -69l13 -2h54zM461 704l-16 -87h-88l16 87h88zM277 704l-16 -87h-88l16 87h88z" />
<glyph unicode="&#xe5;" horiz-adv-x="504" d="M443 79l-13 -78q-8 2 -21 6.5t-41.5 23t-44.5 42.5q-54 -73 -97 -73h-54q-6 0 -16 1t-34.5 9t-42 22t-28 44.5t-3.5 72.5l39 220q1 6 3.5 16t15.5 35.5t30.5 45t51 35.5t75.5 16h203l-65 -368q2 -3 -0.5 -16t8.5 -31t34 -23zM239 78q20 0 36 7.5t24.5 17.5t14 20.5 t7.5 18.5l2 7l51 290h-125q-32 0 -52.5 -17.5t-25.5 -35.5l-5 -17l-39 -220q-11 -58 45 -69l13 -2h54zM226 665q7 38 38.5 65.5t69.5 27.5t61 -27.5t16 -65.5t-39 -65t-70 -27t-60.5 27.5t-15.5 64.5zM269 665q-4 -21 7.5 -35t32.5 -14t37.5 14t20.5 35t-8 35t-33 14 t-37 -14t-20 -35z" />
<glyph unicode="&#xe6;" horiz-adv-x="740" d="M400 149q-1 -3 -1 -7.5t1.5 -17t6.5 -22t18 -17t33 -7.5h203l-13 -78h-203q-3 0 -9 0.5t-22 4.5t-30.5 11t-32 22t-29.5 36q-61 -74 -97 -74h-55q-6 0 -16 1t-34 9t-41 22t-27.5 44.5t-3.5 72.5l39 220q1 6 3.5 16t15 35.5t30 45t51 35.5t74.5 16h329q6 0 16 -1t34 -9 t41.5 -22t28 -44.5t3.5 -71.5q-1 -6 -4 -16t-15.5 -36t-30 -46t-51 -36t-75.5 -16h-125zM372 439h-125q-31 0 -51.5 -17.5t-25.5 -35.5l-5 -17l-39 -220q-6 -32 8.5 -49.5t31.5 -19.5l17 -2h55q59 0 80 60l3 11zM451 439l-25 -141h125q3 0 8 0.5t18 4.5t23.5 10.5t20.5 21 t14 34.5q5 31 -9 49q-14 17 -32 19l-18 2h-125z" />
<glyph unicode="&#xe7;" horiz-adv-x="464" d="M222 -57l10 57q110 2 154 98q9 20 12 36h-79q-9 -48 -71 -55l-9 -1h-54q-56 0 -59 53l1 18l39 220q5 31 26 48.5t39 19.5l18 2h54q30 0 45 -13q14 -14 14 -28v-14h81q7 37 -3.5 64.5t-30 40t-40.5 19.5t-37 8l-15 1h-54q-42 0 -75.5 -15t-51.5 -37t-30 -44t-16 -37 l-3 -15l-39 -220q-8 -46 4.5 -78.5t37.5 -46t43 -18.5t34 -6l-11 -65h1q21 0 34.5 -16t9.5 -37q-4 -22 -23 -38t-40 -16h-33l-7 -44h32q64 0 101 23t43 58q7 39 -13 58.5t-39 19.5z" />
<glyph unicode="&#xe8;" horiz-adv-x="468" d="M441 369q-1 -6 -4 -16t-15.5 -36t-30 -46t-51.5 -36t-76 -16h-125l-12 -70q-1 -3 -1 -7.5t1.5 -17t6.5 -22t18 -17t33 -7.5h204l-13 -78h-204q-6 0 -16 1t-34.5 9t-42 22t-28 44.5t-3.5 72.5l39 220q1 6 3.5 16t15.5 35.5t30.5 45t51 35.5t75.5 16h54q6 0 16 -1t34.5 -9 t42 -22t28 -44.5t3.5 -71.5zM153 298h125q3 0 8 0.5t18 4.5t23.5 10.5t20.5 21t14 34.5q5 31 -9.5 48.5t-32.5 19.5l-17 2h-54q-3 0 -8 -0.5t-17.5 -4t-23 -10.5t-21 -21t-13.5 -34zM206 736h82q20 -58 46 -141h-59z" />
<glyph unicode="&#xe9;" horiz-adv-x="468" d="M441 369q-1 -6 -4 -16t-15.5 -36t-30 -46t-51.5 -36t-76 -16h-125l-12 -70q-1 -3 -1 -7.5t1.5 -17t6.5 -22t18 -17t33 -7.5h204l-13 -78h-204q-6 0 -16 1t-34.5 9t-42 22t-28 44.5t-3.5 72.5l39 220q1 6 3.5 16t15.5 35.5t30.5 45t51 35.5t75.5 16h54q6 0 16 -1t34.5 -9 t42 -22t28 -44.5t3.5 -71.5zM153 298h125q3 0 8 0.5t18 4.5t23.5 10.5t20.5 21t14 34.5q5 31 -9.5 48.5t-32.5 19.5l-17 2h-54q-3 0 -8 -0.5t-17.5 -4t-23 -10.5t-21 -21t-13.5 -34zM450 736h-82l-96 -141h60z" />
<glyph unicode="&#xea;" horiz-adv-x="468" d="M441 369q-1 -6 -4 -16t-15.5 -36t-30 -46t-51.5 -36t-76 -16h-125l-12 -70q-1 -3 -1 -7.5t1.5 -17t6.5 -22t18 -17t33 -7.5h204l-13 -78h-204q-6 0 -16 1t-34.5 9t-42 22t-28 44.5t-3.5 72.5l39 220q1 6 3.5 16t15.5 35.5t30.5 45t51 35.5t75.5 16h54q6 0 16 -1t34.5 -9 t42 -22t28 -44.5t3.5 -71.5zM153 298h125q3 0 8 0.5t18 4.5t23.5 10.5t20.5 21t14 34.5q5 31 -9.5 48.5t-32.5 19.5l-17 2h-54q-3 0 -8 -0.5t-17.5 -4t-23 -10.5t-21 -21t-13.5 -34zM374 596h71l-89 141h-55l-137 -141h71l84 88z" />
<glyph unicode="&#xeb;" horiz-adv-x="468" d="M441 369q-1 -6 -4 -16t-15.5 -36t-30 -46t-51.5 -36t-76 -16h-125l-12 -70q-1 -3 -1 -7.5t1.5 -17t6.5 -22t18 -17t33 -7.5h204l-13 -78h-204q-6 0 -16 1t-34.5 9t-42 22t-28 44.5t-3.5 72.5l39 220q1 6 3.5 16t15.5 35.5t30.5 45t51 35.5t75.5 16h54q6 0 16 -1t34.5 -9 t42 -22t28 -44.5t3.5 -71.5zM153 298h125q3 0 8 0.5t18 4.5t23.5 10.5t20.5 21t14 34.5q5 31 -9.5 48.5t-32.5 19.5l-17 2h-54q-3 0 -8 -0.5t-17.5 -4t-23 -10.5t-21 -21t-13.5 -34zM459 704l-16 -87h-88l16 87h88zM275 704l-16 -87h-88l16 87h88z" />
<glyph unicode="&#xec;" horiz-adv-x="239" d="M178 79l-13 -78q-5 1 -13.5 3.5t-29.5 13.5t-36 25.5t-24.5 43t-3.5 62.5l65 368h79l-65 -368q2 -3 -0.5 -16t8 -31t33.5 -23zM79 736h82q20 -58 46 -141h-59z" />
<glyph unicode="&#xed;" horiz-adv-x="239" d="M178 79l-13 -78q-5 1 -13.5 3.5t-29.5 13.5t-36 25.5t-24.5 43t-3.5 62.5l65 368h79l-65 -368q2 -3 -0.5 -16t8 -31t33.5 -23zM323 736h-82l-96 -141h60z" />
<glyph unicode="&#xee;" horiz-adv-x="239" d="M178 79l-13 -78q-5 1 -13.5 3.5t-29.5 13.5t-36 25.5t-24.5 43t-3.5 62.5l65 368h79l-65 -368q2 -3 -0.5 -16t8 -31t33.5 -23zM247 596h71l-89 141h-55l-137 -141h71l84 88z" />
<glyph unicode="&#xef;" horiz-adv-x="239" d="M178 79l-13 -78q-5 1 -13.5 3.5t-29.5 13.5t-36 25.5t-24.5 43t-3.5 62.5l65 368h79l-65 -368q2 -3 -0.5 -16t8 -31t33.5 -23zM332 704l-16 -87h-88l16 87h88zM148 704l-16 -87h-88l16 87h88z" />
<glyph unicode="&#xf0;" horiz-adv-x="483" d="M264 512l-29 28l65 66q-47 37 -102 57q7 15 19 37l18 33q75 -22 128 -65l71 71l28 -29l-70 -71q70 -90 52 -194l-52 -296q-13 -74 -67 -111.5t-109 -37.5h-54q-75 0 -104.5 47.5t-19.5 101.5l19 110q13 74 66.5 111t109.5 37h125l7 38q11 62 -35 133zM313 149l32 180 h-125q-72 -2 -84 -70l-19 -110q-11 -71 58 -71h54q72 2 84 71z" />
<glyph unicode="&#xf1;" horiz-adv-x="503" d="M386 0l65 371q7 41 -3 71.5t-29.5 44t-40 21.5t-36.5 8l-15 1h-54q-4 0 -11.5 -2t-22 -21.5t-20.5 -54.5l-63 78h-33l-91 -517h79l64 368q1 3 2 7.5t7 17t14.5 22t24.5 17t36 7.5h54q3 0 7.5 -0.5t16 -4.5t20 -10.5t13.5 -21t1 -34.5l-64 -368h79zM392 674q37 0 61 52h35 q-13 -39 -45 -80t-63 -41q-14 0 -63 28q-44 24 -58 24q-34 0 -60 -52h-34q13 39 45 80t62 41q15 0 64 -28q41 -24 56 -24z" />
<glyph unicode="&#xf2;" horiz-adv-x="487" d="M317 517q6 0 16 -1t34 -9t41.5 -22t28 -44.5t3.5 -71.5l-39 -220q-1 -3 -2 -8.5t-6.5 -21t-13 -29.5t-22 -31t-31.5 -29.5t-43.5 -21t-56.5 -8.5h-55q-6 0 -16 1t-34 9t-41.5 22t-28 44.5t-3.5 72.5l39 220q1 6 3.5 16t15 35.5t30 45t51 35.5t75.5 16h55zM322 149l39 220 q0 3 0.5 7.5t-1 16.5t-6.5 21.5t-18 17t-33 7.5h-55q-3 0 -7.5 -0.5t-17.5 -4t-23.5 -10.5t-20.5 -21t-13 -34l-39 -220q-1 -3 -1 -7.5t1.5 -17t6 -22t17.5 -17t33 -7.5h55q3 0 7.5 0.5t17.5 4.5t23.5 10.5t20.5 21t14 34.5zM206 736h82q20 -58 46 -141h-59z" />
<glyph unicode="&#xf3;" horiz-adv-x="487" d="M317 517q6 0 16 -1t34 -9t41.5 -22t28 -44.5t3.5 -71.5l-39 -220q-1 -3 -2 -8.5t-6.5 -21t-13 -29.5t-22 -31t-31.5 -29.5t-43.5 -21t-56.5 -8.5h-55q-6 0 -16 1t-34 9t-41.5 22t-28 44.5t-3.5 72.5l39 220q1 6 3.5 16t15 35.5t30 45t51 35.5t75.5 16h55zM322 149l39 220 q0 3 0.5 7.5t-1 16.5t-6.5 21.5t-18 17t-33 7.5h-55q-3 0 -7.5 -0.5t-17.5 -4t-23.5 -10.5t-20.5 -21t-13 -34l-39 -220q-1 -3 -1 -7.5t1.5 -17t6 -22t17.5 -17t33 -7.5h55q3 0 7.5 0.5t17.5 4.5t23.5 10.5t20.5 21t14 34.5zM450 736h-82l-96 -141h60z" />
<glyph unicode="&#xf4;" horiz-adv-x="487" d="M317 517q6 0 16 -1t34 -9t41.5 -22t28 -44.5t3.5 -71.5l-39 -220q-1 -3 -2 -8.5t-6.5 -21t-13 -29.5t-22 -31t-31.5 -29.5t-43.5 -21t-56.5 -8.5h-55q-6 0 -16 1t-34 9t-41.5 22t-28 44.5t-3.5 72.5l39 220q1 6 3.5 16t15 35.5t30 45t51 35.5t75.5 16h55zM322 149l39 220 q0 3 0.5 7.5t-1 16.5t-6.5 21.5t-18 17t-33 7.5h-55q-3 0 -7.5 -0.5t-17.5 -4t-23.5 -10.5t-20.5 -21t-13 -34l-39 -220q-1 -3 -1 -7.5t1.5 -17t6 -22t17.5 -17t33 -7.5h55q3 0 7.5 0.5t17.5 4.5t23.5 10.5t20.5 21t14 34.5zM374 596h71l-89 141h-55l-137 -141h71l84 88z " />
<glyph unicode="&#xf5;" horiz-adv-x="487" d="M317 517q6 0 16 -1t34 -9t41.5 -22t28 -44.5t3.5 -71.5l-39 -220q-1 -3 -2 -8.5t-6.5 -21t-13 -29.5t-22 -31t-31.5 -29.5t-43.5 -21t-56.5 -8.5h-55q-6 0 -16 1t-34 9t-41.5 22t-28 44.5t-3.5 72.5l39 220q1 6 3.5 16t15 35.5t30 45t51 35.5t75.5 16h55zM322 149l39 220 q0 3 0.5 7.5t-1 16.5t-6.5 21.5t-18 17t-33 7.5h-55q-3 0 -7.5 -0.5t-17.5 -4t-23.5 -10.5t-20.5 -21t-13 -34l-39 -220q-1 -3 -1 -7.5t1.5 -17t6 -22t17.5 -17t33 -7.5h55q3 0 7.5 0.5t17.5 4.5t23.5 10.5t20.5 21t14 34.5zM383 674q37 0 61 52h35q-13 -39 -45 -80t-63 -41 q-14 0 -63 28q-44 24 -58 24q-34 0 -60 -52h-34q13 39 45 80t62 41q15 0 64 -28q41 -24 56 -24z" />
<glyph unicode="&#xf6;" horiz-adv-x="487" d="M317 517q6 0 16 -1t34 -9t41.5 -22t28 -44.5t3.5 -71.5l-39 -220q-1 -3 -2 -8.5t-6.5 -21t-13 -29.5t-22 -31t-31.5 -29.5t-43.5 -21t-56.5 -8.5h-55q-6 0 -16 1t-34 9t-41.5 22t-28 44.5t-3.5 72.5l39 220q1 6 3.5 16t15 35.5t30 45t51 35.5t75.5 16h55zM322 149l39 220 q0 3 0.5 7.5t-1 16.5t-6.5 21.5t-18 17t-33 7.5h-55q-3 0 -7.5 -0.5t-17.5 -4t-23.5 -10.5t-20.5 -21t-13 -34l-39 -220q-1 -3 -1 -7.5t1.5 -17t6 -22t17.5 -17t33 -7.5h55q3 0 7.5 0.5t17.5 4.5t23.5 10.5t20.5 21t14 34.5zM459 704l-16 -87h-88l16 87h88zM275 704l-16 -87 h-88l16 87h88z" />
<glyph unicode="&#xf7;" horiz-adv-x="492" d="M49 298h408l-14 -79h-408zM171 55l14 79h79l-14 -79h-79zM322 463l-14 -79h-79l14 79h79z" />
<glyph unicode="&#xf8;" horiz-adv-x="488" d="M427 463q24 -37 14 -94l-39 -220q-1 -3 -2 -8.5t-6.5 -21t-13 -29.5t-22 -31t-31.5 -29.5t-43.5 -21t-56.5 -8.5h-55q-46 0 -83 25l-28 -36l-33 25l32 41q-23 38 -12 94l39 220q1 6 3.5 16t15.5 35.5t30.5 45t51 35.5t75.5 16h55q45 0 80 -25l29 37l34 -24zM128 149 q-1 -3 -2 -8l220 284q-16 14 -42 14h-55q-3 0 -7.5 -0.5t-17.5 -4t-23.5 -10.5t-20.5 -21t-13 -34zM323 149l39 220v9l-220 -285q13 -15 43 -15h55q3 0 7.5 0.5t17.5 4.5t23.5 10.5t20.5 21t14 34.5z" />
<glyph unicode="&#xf9;" horiz-adv-x="509" d="M405 149q2 -3 -0.5 -16t8.5 -31t35 -23l-13 -78q-8 2 -21 6.5t-41.5 23t-44.5 42.5q-56 -73 -97 -73h-55q-6 0 -16 1t-34 9t-41.5 22t-28 44.5t-3.5 72.5l65 368h79l-65 -368q-6 -32 8.5 -49.5t31.5 -19.5l17 -2h55q59 0 80 60l3 11l65 368h78zM213 736h82 q20 -58 46 -141h-59z" />
<glyph unicode="&#xfa;" horiz-adv-x="509" d="M405 149q2 -3 -0.5 -16t8.5 -31t35 -23l-13 -78q-8 2 -21 6.5t-41.5 23t-44.5 42.5q-56 -73 -97 -73h-55q-6 0 -16 1t-34 9t-41.5 22t-28 44.5t-3.5 72.5l65 368h79l-65 -368q-6 -32 8.5 -49.5t31.5 -19.5l17 -2h55q59 0 80 60l3 11l65 368h78zM457 736h-82l-96 -141h60z " />
<glyph unicode="&#xfb;" horiz-adv-x="509" d="M405 149q2 -3 -0.5 -16t8.5 -31t35 -23l-13 -78q-8 2 -21 6.5t-41.5 23t-44.5 42.5q-56 -73 -97 -73h-55q-6 0 -16 1t-34 9t-41.5 22t-28 44.5t-3.5 72.5l65 368h79l-65 -368q-6 -32 8.5 -49.5t31.5 -19.5l17 -2h55q59 0 80 60l3 11l65 368h78zM381 596h71l-89 141h-55 l-137 -141h71l84 88z" />
<glyph unicode="&#xfc;" horiz-adv-x="509" d="M405 149q2 -3 -0.5 -16t8.5 -31t35 -23l-13 -78q-8 2 -21 6.5t-41.5 23t-44.5 42.5q-56 -73 -97 -73h-55q-6 0 -16 1t-34 9t-41.5 22t-28 44.5t-3.5 72.5l65 368h79l-65 -368q-6 -32 8.5 -49.5t31.5 -19.5l17 -2h55q59 0 80 60l3 11l65 368h78zM466 704l-16 -87h-88 l16 87h88zM282 704l-16 -87h-88l16 87h88z" />
<glyph unicode="&#xfd;" horiz-adv-x="502" d="M392 517h79l-104 -588q-7 -41 -28 -71.5t-45 -44.5t-48 -22q-22 -8 -38 -9l-16 -1h-171l14 78h171q31 0 51.5 17.5t25.5 35.5l5 17l13 71h-125q-6 0 -16 1t-34 9t-41.5 22t-28 44.5t-3.5 72.5l65 368h79l-65 -368q-6 -32 8.5 -49.5t31.5 -19.5l17 -2h125zM457 736h-82 l-96 -141h60z" />
<glyph unicode="&#xfe;" horiz-adv-x="498" d="M327 517q6 0 16 -1t34.5 -9t42 -22t28 -44.5t3.5 -71.5l-39 -220q-19 -110 -126 -141q-28 -8 -50 -8h-125l-39 -219h-79l168 956h79l-53 -298q1 3 3.5 8.5t10.5 19t17 23.5t24 18.5t31 8.5h54zM333 149l39 220q0 3 0.5 7.5t-1 16.5t-6.5 21.5t-18.5 17t-33.5 7.5h-54 q-3 0 -8 -0.5t-17.5 -4t-23 -10.5t-21 -21t-13.5 -34l-52 -291h125q3 0 8 0.5t18 4.5t23.5 10.5t20.5 21t14 34.5z" />
<glyph unicode="&#xff;" horiz-adv-x="502" d="M392 517h79l-104 -588q-7 -41 -28 -71.5t-45 -44.5t-48 -22q-22 -8 -38 -9l-16 -1h-171l14 78h171q31 0 51.5 17.5t25.5 35.5l5 17l13 71h-125q-6 0 -16 1t-34 9t-41.5 22t-28 44.5t-3.5 72.5l65 368h79l-65 -368q-6 -32 8.5 -49.5t31.5 -19.5l17 -2h125zM466 704 l-16 -87h-88l16 87h88zM282 704l-16 -87h-88l16 87h88z" />
<glyph unicode="&#x152;" horiz-adv-x="781" d="M650 604q-15 -1 -30 -4t-41.5 -12.5t-46 -34.5t-26.5 -61q-5 -29 2.5 -51t20.5 -33.5t31.5 -18t30 -8t21.5 -1.5h94l-14 -78h-94q-14 0 -30.5 -3t-42 -13t-45.5 -35t-27 -61q-5 -29 2.5 -51t20 -33.5t31 -18t30 -8t21.5 -1.5h149l-13 -78h-149q-41 0 -83 18.5t-71 55.5 q-76 -74 -175 -74q-42 0 -73.5 11.5t-49 29t-29.5 39.5t-15 44t-4 40q-1 16 1 28l1 12l49 275q1 8 5 22t21 49t41 61.5t70 48.5t103 22q100 0 149 -74q42 37 91 55.5t89 18.5h149l-14 -78h-150zM229 78q34 0 62 12.5t43 29t25.5 36.5t13.5 31t4 16q18 77 100 137 q-60 62 -51 140q1 4 1.5 14.5t-3 30.5t-12.5 37t-32.5 29.5t-57.5 12.5q-35 0 -63 -13t-43 -31t-25 -36.5t-13 -31.5l-3 -13l-49 -275q-1 -5 -1.5 -13.5t2.5 -30.5t11.5 -38.5t32 -30t58.5 -13.5z" />
<glyph unicode="&#x153;" horiz-adv-x="760" d="M400 149q-1 -3 -1 -7.5t1.5 -17t6.5 -22t18 -17t33 -7.5h203l-13 -78h-203q-57 0 -104 43q-53 -43 -116 -43h-55q-6 0 -16 1t-34 9t-41 22t-27.5 44.5t-3.5 72.5l39 220q1 6 3.5 16t15 35.5t30 45t51 35.5t74.5 16h55q56 0 102 -43q53 43 118 43h54q6 0 16 -1t34 -9 t41.5 -22t28 -44.5t3.5 -71.5q-1 -6 -4 -16t-15.5 -36t-30 -46t-51 -36t-75.5 -16h-125zM238 78q3 0 7.5 0.5t17.5 4.5t23.5 10.5t20.5 21t14 34.5l39 220q0 3 0.5 7.5t-1 16.5t-6.5 21.5t-18 17t-33 7.5h-55q-3 0 -7.5 -0.5t-17.5 -4t-23.5 -10.5t-20.5 -21t-13 -34 l-39 -220q-1 -3 -1 -7.5t1.5 -17t6 -22t17.5 -17t33 -7.5h55zM522 439q-3 0 -8 -0.5t-17.5 -4t-23 -10.5t-21 -21t-13.5 -34l-13 -71h125q3 0 8 0.5t18 4.5t23.5 10.5t20.5 21t14 34.5q5 31 -9 49q-14 17 -32 19l-18 2h-54z" />
<glyph unicode="&#x178;" horiz-adv-x="428" d="M516 682l-256 -388l-51 -294h-79l51 294l-119 388h88l84 -308l195 308h87zM429 852l-16 -87h-88l16 87h88zM245 852l-16 -87h-88l16 87h88z" />
<glyph unicode="&#x2c6;" horiz-adv-x="365" d="M312 596h71l-89 141h-55l-137 -141h71l84 88z" />
<glyph unicode="&#x2dc;" horiz-adv-x="385" d="M330 674q37 0 61 52h35q-13 -39 -45 -80t-63 -41q-14 0 -63 28q-44 24 -58 24q-34 0 -60 -52h-34q13 39 45 80t62 41q15 0 64 -28q41 -24 56 -24z" />
<glyph unicode="&#x2000;" horiz-adv-x="453" />
<glyph unicode="&#x2001;" horiz-adv-x="906" />
<glyph unicode="&#x2002;" horiz-adv-x="453" />
<glyph unicode="&#x2003;" horiz-adv-x="906" />
<glyph unicode="&#x2004;" horiz-adv-x="302" />
<glyph unicode="&#x2005;" horiz-adv-x="226" />
<glyph unicode="&#x2006;" horiz-adv-x="151" />
<glyph unicode="&#x2007;" horiz-adv-x="151" />
<glyph unicode="&#x2008;" horiz-adv-x="113" />
<glyph unicode="&#x2009;" horiz-adv-x="181" />
<glyph unicode="&#x200a;" horiz-adv-x="50" />
<glyph unicode="&#x2010;" horiz-adv-x="381" d="M49 298h297l-14 -79h-297z" />
<glyph unicode="&#x2011;" horiz-adv-x="381" d="M49 298h297l-14 -79h-297z" />
<glyph unicode="&#x2013;" horiz-adv-x="367" d="M12 286l-9 -50h353l9 50h-353z" />
<glyph unicode="&#x2014;" horiz-adv-x="640" d="M12 286h626l-9 -50h-626z" />
<glyph unicode="&#x2018;" horiz-adv-x="181" d="M190 549l-17 -96h-97l18 101q7 40 28.5 70t37 41t29.5 16l9 -15t8 -16q-32 -12 -47.5 -37t-15.5 -45v-19h47z" />
<glyph unicode="&#x2019;" horiz-adv-x="181" d="M100 585l17 96h97l-18 -101q-7 -40 -28.5 -70t-37 -41t-29.5 -16l-9 15t-8 16q32 12 47.5 37t15.5 45v19h-47z" />
<glyph unicode="&#x201a;" horiz-adv-x="181" d="M-3 0l16 96h97l-17 -101q-6 -31 -19 -55.5t-29 -39t-27 -21.5t-20 -11q-2 6 -8 16l-9 15q32 12 47 37q16 24 16 44v20h-47z" />
<glyph unicode="&#x201c;" horiz-adv-x="341" d="M350 549l-17 -96h-97l18 101q7 40 28.5 70t37 41t29.5 16l9 -15t8 -16q-32 -12 -47.5 -37t-15.5 -45v-19h47zM190 549l-17 -96h-97l18 101q7 40 28.5 70t37 41t29.5 16l9 -15t8 -16q-32 -12 -47.5 -37t-15.5 -45v-19h47z" />
<glyph unicode="&#x201d;" horiz-adv-x="341" d="M100 585l17 96h97l-18 -101q-7 -40 -28.5 -70t-37 -41t-29.5 -16l-9 15t-8 16q32 12 47.5 37t15.5 45v19h-47zM260 585l17 96h97l-18 -101q-7 -40 -28.5 -70t-37 -41t-29.5 -16l-9 15t-8 16q32 12 47.5 37t15.5 45v19h-47z" />
<glyph unicode="&#x201e;" horiz-adv-x="361" d="M-3 0l16 96h97l-17 -101q-6 -31 -19 -55.5t-29 -39t-27 -21.5t-20 -11q-2 6 -8 16l-9 15q32 12 47 37q16 24 16 44v20h-47zM177 0l16 96h97l-17 -101q-6 -31 -19 -55.5t-29 -39t-27 -21.5t-20 -11q-2 6 -8 16l-9 15q32 12 47 37q16 24 16 44v20h-47z" />
<glyph unicode="&#x2022;" horiz-adv-x="305" d="M263 259q8 46 -18.5 78t-72.5 32t-84 -32t-46 -78t18.5 -78.5t72.5 -32.5t84 32t46 79z" />
<glyph unicode="&#x2026;" horiz-adv-x="696" d="M10 75l88 74l61 -74l-87 -74zM242 75l87 74l62 -74l-88 -74zM561 149l61 -74l-87 -74l-61 74z" />
<glyph unicode="&#x202f;" horiz-adv-x="181" />
<glyph unicode="&#x2039;" horiz-adv-x="337" d="M184 55l-157 204l229 204h90l-226 -204l154 -204h-90z" />
<glyph unicode="&#x203a;" horiz-adv-x="338" d="M-9 55h90l230 204l-158 204h-90l154 -204z" />
<glyph unicode="&#x205f;" horiz-adv-x="226" />
<glyph unicode="&#x20ac;" horiz-adv-x="640" d="M544 122l34 -63q-97 -59 -201 -59q-95 0 -166.5 48t-101.5 128l-121 -27l8 47l101 23q-9 39 -6 84l-79 -18l8 46l77 17q28 140 144.5 237.5t255.5 97.5q102 0 181 -58l-56 -65q-59 45 -139 45q-102 0 -189 -68.5t-115 -169.5l439 102l-8 -46l-439 -102q-4 -43 5 -84 l418 96l-8 -46l-394 -91q27 -54 79 -86t119 -32q82 0 154 44z" />
<glyph unicode="&#x2122;" horiz-adv-x="577" d="M457 545l102 138h51l-45 -257h-44l31 179l-111 -148l-58 148l-31 -179h-44l45 257h51zM121 426l37 213h-79l8 44h203l-8 -44h-80l-37 -213h-44z" />
</font>
</defs>
</svg>
