<?xml version="1.0" standalone="no"?>
<!DOCTYPE svg PUBLIC "-//W3C//DTD SVG 1.1//EN" "http://www.w3.org/Graphics/SVG/1.1/DTD/svg11.dtd" >
<svg xmlns="http://www.w3.org/2000/svg">
<metadata>
This is a custom SVG webfont generated by Font Squirrel.
Designer    : Jack Usine
Foundry URL : www.smeltery.net
</metadata>
<defs>
<font id="webfont9H5TeIEP" horiz-adv-x="480" >
<font-face units-per-em="1000" ascent="763" descent="-237" />
<missing-glyph horiz-adv-x="300" />
<glyph unicode=" "  horiz-adv-x="300" />
<glyph unicode="&#x09;" horiz-adv-x="300" />
<glyph unicode="&#xa0;" horiz-adv-x="300" />
<glyph unicode="!" horiz-adv-x="250" d="M27 0l18 105h105l-18 -105h-105zM137 683h126l-17 -98l-98 -375h-63l35 375z" />
<glyph unicode="&#x22;" horiz-adv-x="359" d="M87 555l23 128h96l-23 -128l-60 -160h-32zM303 683h96l-23 -128l-60 -160h-32l-4 160z" />
<glyph unicode="#" horiz-adv-x="625" d="M591 683l-49 -158h80l-18 -105h-94l-49 -157h62l-19 -105h-76l-48 -158h-106l48 158h-104l-48 -158h-106l48 158h-80l19 105h94l49 157h-63l18 105h77l49 158h106l-49 -158h104l49 158h106zM355 263l49 157h-104l-49 -157h104z" />
<glyph unicode="$" horiz-adv-x="490" d="M227 -53h-74l10 53h-120l18 105h120l33 186q-84 12 -117.5 71t-21.5 124q12 64 65.5 123t141.5 71l10 55h74l-9 -52h121l-19 -105h-121l-33 -187q84 -12 117.5 -71t21.5 -123q-12 -65 -65.5 -124t-141.5 -71zM339 196q0 11 1 27.5t-13 35t-40 25.5l-31 -175q29 7 49 26.5 t26 33.5t8 27zM180 486q0 -11 -1 -27t13 -35t41 -26l31 175q-30 -7 -50 -26t-26 -33.5t-8 -27.5z" />
<glyph unicode="%" horiz-adv-x="889" d="M233 0h-86l528 683h86zM293 683q76 0 120.5 -54t30.5 -130q-13 -76 -76 -130t-140 -54q-76 0 -120 53.5t-31 130.5q14 76 77 130t139 54zM245 410q37 0 68 26t37 63q7 37 -15 63t-59 26t-67.5 -26t-37.5 -63q-6 -37 15.5 -63t58.5 -26zM689 368q76 0 120.5 -54t31.5 -130 t-76.5 -130t-139.5 -54q-77 0 -121 54t-31 130q14 76 77 130t139 54zM641 95q37 0 67.5 26t37.5 63t-14.5 63t-58.5 26t-67.5 -26t-37.5 -63t14.5 -63t58.5 -26z" />
<glyph unicode="&#x26;" horiz-adv-x="523" d="M410 210h-105l13 79h-52q-11 0 -25 -2.5t-36 -10.5t-39 -28.5t-22 -50.5q-4 -24 2.5 -42.5t17.5 -27.5t26.5 -14.5t25 -6.5t17.5 -1h210l-18 -105h-210q-34 0 -67 11t-61.5 33t-42.5 61.5t-5 91.5q16 90 91 144q-56 56 -40 145q12 67 56.5 114t93 65t95.5 18h158 l-19 -105h-157q-107 -6 -122 -92q-4 -24 2.5 -42.5t17.5 -27.5t26.5 -14.5t25.5 -6.5t18 -1h52l14 79h105l-14 -79h105l-19 -105h-105z" />
<glyph unicode="'" horiz-adv-x="166" d="M87 555l23 128h96l-23 -128l-60 -160h-32z" />
<glyph unicode="(" horiz-adv-x="308" d="M51 263q37 211 190 420h122q-170 -210 -207 -420q-12 -54 -9.5 -113.5t7.5 -102.5t18.5 -88t22.5 -69.5t20 -47.5h-122q-80 211 -42 421z" />
<glyph unicode=")" horiz-adv-x="308" d="M259 263q37 211 -42 420h-122q10 -22 19.5 -47t22.5 -69.5t18.5 -88t8 -102.5t-9.5 -113q-37 -208 -206 -421h121q151 207 190 421z" />
<glyph unicode="*" horiz-adv-x="389" d="M394 605q12 -26 10 -61l-108 -36l46 -94q-23 -23 -56 -38l-54 90l-86 -90q-26 13 -45 38l81 94l-97 36q10 31 33 61l97 -30l22 104q22 4 33 4q13 0 31 -4l-15 -104z" />
<glyph unicode="+" horiz-adv-x="490" d="M465 315l-18 -105h-158l-28 -157h-105l28 157h-157l18 105h157l28 158h105l-28 -158h158z" />
<glyph unicode="," horiz-adv-x="175" d="M-10 0l18 105h105l-18 -105q-5 -29 -17.5 -53.5t-26.5 -38t-27.5 -23t-21.5 -13.5l-9 -3l-20 39q62 23 69 84l1 8h-53z" />
<glyph unicode="-" horiz-adv-x="385" d="M45 315h315l-18 -105h-315z" />
<glyph unicode="." horiz-adv-x="175" d="M-10 1l18 105h105l-18 -105h-105z" />
<glyph unicode="/" horiz-adv-x="319" d="M-34 -105l303 788h95l-303 -788h-95z" />
<glyph unicode="0" horiz-adv-x="487" d="M345 683q44 0 73.5 -16.5t40 -39.5t15 -46t2.5 -39l-2 -17l-65 -367q-20 -116 -130 -149q-30 -9 -54 -9h-53q-44 0 -73.5 16.5t-40.5 39.5t-16 46q-4 24 -2 40l2 16l65 367q8 44 30 76.5t47.5 47.5t49.5 23q26 9 42 10l16 1h53zM304 158l65 367q4 24 -7 37q-10 12 -23 14 l-13 2h-53q-23 0 -39 -13q-14 -13 -18 -27l-4 -13l-65 -367q-4 -24 6.5 -37t23.5 -15l13 -1h53q23 0 39 13q14 14 18 27z" />
<glyph unicode="1" horiz-adv-x="355" d="M105 683h210l-102 -578h105l-18 -105h-315l18 105h105l83 473h-105z" />
<glyph unicode="2" horiz-adv-x="432" d="M444 525q-27 -156 -221 -358q-37 -38 -63 -62h210l-18 -105h-346l18 105q12 10 31 28t70 70.5t91.5 101.5t77.5 111t45 109q8 51 -43 53h-53q-52 0 -61 -54l-105 1q10 58 58 108t127 50h53q58 0 100.5 -39.5t28.5 -118.5z" />
<glyph unicode="3" horiz-adv-x="458" d="M436 473l9 52q8 44 -2.5 76.5t-31 47.5t-42.5 23.5t-38 9.5l-16 1h-52q-119 0 -170 -110q-12 -27 -16 -48h105q4 24 20 37q14 12 28 14l14 2h52q24 0 35 -13t10 -27l-1 -13l-9 -53q-2 -11 -6.5 -21.5t-14 -25t-28.5 -23t-44 -8.5h-25l-20 -105h26q42 -2 56 -17 q17 -19 10 -62l-10 -52q-1 -6 -4 -15t-18.5 -23.5t-39.5 -14.5h-52q-2 0 -5.5 0.5t-12 3t-15 7.5t-10.5 16t-1 26h-105q-1 -3 -1.5 -9t0 -22t3.5 -31t11.5 -33.5t22.5 -31.5t38.5 -22t56.5 -9h52q3 0 9 0.5t23 3.5t32.5 8.5t36 17t36.5 27.5t29 42.5t19 58.5l10 52 q13 77 -33 131q67 61 79 132z" />
<glyph unicode="4" horiz-adv-x="419" d="M231 683h116l-221 -420h117l18 105h105l-18 -105h52l-19 -105h-52l-27 -158h-105l27 158h-222l19 105z" />
<glyph unicode="5" horiz-adv-x="463" d="M299 420q32 0 56.5 -8.5t38.5 -22.5t22.5 -30.5t11 -33.5t3 -31t-0.5 -22l-1 -9l-19 -105q-8 -44 -29.5 -76.5t-47.5 -47.5t-50.5 -23.5t-40.5 -9.5l-17 -1h-52q-44 0 -74 16.5t-41 39.5t-16 46q-4 24 -2 40l2 16h105q-4 -24 7 -37t24 -15l13 -1h52q24 0 39.5 13.5 t19.5 26.5l3 13l19 105q-2 2 0 13.5t-9 25t-35 13.5h-210l65 368h336l-19 -105h-231l-27 -158h105z" />
<glyph unicode="6" horiz-adv-x="462" d="M299 420q54 0 86.5 -27t40.5 -61t2 -69l-19 -105q-14 -79 -70 -118.5t-114 -39.5h-53q-54 0 -87 27t-41 61t-2 70l65 367q10 58 58 108t127 50h189l-19 -105h-189q-52 0 -61 -53l-18 -105h105zM304 158l19 104q7 53 -43 53h-105q-27 -156 -28 -157q-9 -53 43 -53h52 q54 2 62 53z" />
<glyph unicode="7" horiz-adv-x="386" d="M434 588l-271 -588h-105l269 578h-261l19 105h366z" />
<glyph unicode="8" horiz-adv-x="488" d="M466 473q-14 -80 -73 -121q19 -20 26.5 -50.5t5.5 -50.5l-2 -20l-13 -73q-8 -44 -29.5 -76.5t-47.5 -47.5t-50.5 -23.5t-40.5 -9.5l-17 -1h-52q-44 0 -74 16.5t-41 39.5t-16 46q-4 24 -2 40l2 16l13 73q14 79 72 120q-39 47 -29 122l9 52q20 116 132 149q30 9 54 9h52 q44 0 74 -16.5t40.5 -39.5t15 -46t2.5 -39l-2 -17zM212 525l-13 -73q-4 -24 7 -37t24 -15l13 -1h52q24 0 39.5 13.5t19.5 26.5l3 13l13 73q4 24 -7 37q-11 12 -24 14l-13 2h-52q-24 0 -40 -13q-14 -13 -18 -27zM305 158l17 94q4 24 -7 37t-24 15l-13 1h-52q-24 0 -40 -13 q-14 -14 -18 -27l-4 -13l-17 -94q-4 -24 7 -37t24 -15l13 -1h52q24 0 39.5 13.5t19.5 26.5z" />
<glyph unicode="9" horiz-adv-x="463" d="M194 263q-54 0 -87 27t-41.5 61t-1.5 69l18 105q10 54 43.5 91.5t70 52t72.5 14.5h52q54 0 87 -27.5t41 -61.5t2 -69l-65 -367q-10 -58 -58 -108t-127 -50h-189l18 105h189q51 0 62 53l19 105h-105zM187 525l-18 -104q-8 -53 43 -53h105q28 155 28 156q6 54 -44 54h-52 q-54 -2 -62 -53z" />
<glyph unicode=":" horiz-adv-x="175" d="M-10 1l18 105h105l-18 -105h-105zM73 473h105l-19 -105h-105z" />
<glyph unicode=";" horiz-adv-x="175" d="M73 473h105l-19 -105h-105zM-10 0l18 105h105l-18 -105q-5 -29 -17.5 -53.5t-26.5 -38t-27.5 -23t-21.5 -13.5l-9 -3l-20 39q62 23 69 84l1 8h-53z" />
<glyph unicode="&#x3c;" horiz-adv-x="428" d="M363 0l-350 221l15 84l427 220l-22 -126l-286 -136l238 -137z" />
<glyph unicode="=" horiz-adv-x="490" d="M64 420h420l-19 -105h-420zM8 105l19 105h420l-19 -105h-420z" />
<glyph unicode="&#x3e;" horiz-adv-x="428" d="M-25 0l426 221l15 84l-349 220l-22 -126l238 -136l-286 -137z" />
<glyph unicode="?" horiz-adv-x="437" d="M320 683q58 0 100.5 -39.5t28.5 -118.5q-6 -31 -24.5 -62t-35.5 -49t-48 -47q-4 -3 -20.5 -19l-21.5 -21t-18.5 -19.5t-19 -23l-14 -21.5t-13 -26t-6.5 -27h-75q22 130 121 225q35 33 51 52.5t19 37.5q8 51 -43 53h-52q-54 -2 -62 -53h-105q10 54 43.5 91.5t70 52 t71.5 14.5h53zM105 0l18 105h105l-18 -105h-105z" />
<glyph unicode="@" horiz-adv-x="635" d="M465 525q44 0 73.5 -16t40 -39.5t15 -46.5t2.5 -39l-2 -16l-37 -210q-11 -65 -65 -111.5t-119 -46.5q-75 0 -111 57q-43 -57 -99 -57q-65 0 -103.5 46.5t-27.5 111.5q12 65 66.5 111t119.5 46h157l-28 -157q-4 -22 9 -37.5t35 -15.5t39.5 15.5t21.5 37.5l37 210 q8 44 -34 51l-8 1h-368l18 105h368zM181 105q22 0 39.5 15.5t21.5 37.5l10 52h-52q-22 0 -40.5 -15t-22.5 -37t9 -37.5t35 -15.5z" />
<glyph unicode="A" d="M383 683l62 -683h-108l-10 105h-228l-46 -105h-108l302 683h136zM146 210h172l-22 368z" />
<glyph unicode="B" horiz-adv-x="530" d="M433 355q64 -59 47 -155q-15 -83 -83.5 -141.5t-150.5 -58.5h-221l120 683h205q80 0 127 -57t33 -138q-13 -76 -77 -133zM331 578h-100l-31 -179h100q37 0 67.5 26t37.5 63q6 37 -15.5 63.5t-58.5 26.5zM264 105q39 0 71 27.5t40 67.5q7 39 -16 66.5t-62 27.5l1 1 q-6 -1 -17 -1h-100l-33 -189h116z" />
<glyph unicode="C" horiz-adv-x="505" d="M508 473q1 4 2 12t0.5 29.5t-4 41.5t-15 44t-30 41.5t-51 29.5t-75.5 12q-150 0 -220 -135q-21 -41 -27 -75l-46 -263q-1 -4 -2 -12t-0.5 -29.5t4 -41.5t15 -44t30 -41.5t51 -29.5t75.5 -12q150 0 220 135q21 41 27 75h-105q-1 -4 -3 -11t-10.5 -25.5t-21 -32t-36.5 -25 t-53 -11.5t-49 11t-27 26.5t-10 30.5t-1 26l1 11l46 263q1 4 2.5 11t10.5 25.5t21 32t36 25t53 11.5t49 -11t27 -26.5t10 -30.5t2 -26l-1 -11h105z" />
<glyph unicode="D" horiz-adv-x="540" d="M355 683l42 -5q110 -23 131 -117q9 -39 0 -88l-46 -263q-2 -9 -5.5 -23t-21 -50t-42.5 -64t-72 -50.5t-106 -22.5h-210l120 683h210zM377 210l46 263q5 29 -2 51t-21 31.5t-28 15.5q-16 7 -26 7h-10h-105l-83 -473h105q29 0 53 11t36.5 26.5t21 30.5t10.5 26z" />
<glyph unicode="E" horiz-adv-x="453" d="M391 105l-18 -105h-158q-34 0 -67 11t-61.5 33t-42.5 61.5t-5 91.5q16 91 90 144q-55 55 -39 145q12 67 56.5 114t93 65t95.5 18h158l-19 -105h-158q-106 -6 -121 -92q-4 -24 2.5 -42.5t17.5 -27.5t26.5 -14.5t25 -6.5t17.5 -1h105l-19 -105h-105q-11 0 -25 -2.5 t-35.5 -10.5t-38.5 -28.5t-22 -50.5q-4 -24 2.5 -42.5t17.5 -27.5t26.5 -14.5t25 -6.5t17.5 -1h158z" />
<glyph unicode="F" horiz-adv-x="415" d="M145 683h315l-19 -105h-210l-37 -210h210l-18 -105h-210l-46 -263h-105z" />
<glyph unicode="G" horiz-adv-x="520" d="M462 210q-26 -147 -164 -194q-46 -16 -83 -16q-143 0 -170 123q-10 46 -3 87l46 263q2 9 5.5 23t21 50t42.5 64t72 50.5t106 22.5q143 0 170 -123q10 -46 3 -87h-105q1 4 1.5 11t-2 25.5t-10 32t-27.5 25t-49 11.5q-84 0 -116 -81l-7 -24l-46 -263q-1 -4 -1.5 -11 t2 -25.5t9.5 -32t27 -25t49 -11.5t53 11t36.5 26.5t21 30.5t10.5 26l3 11l9 53h-105l18 105h210z" />
<glyph unicode="H" horiz-adv-x="560" d="M145 683h105l-46 -263h210l46 263h105l-120 -683h-105l55 315h-210l-55 -315h-105z" />
<glyph unicode="I" horiz-adv-x="245" d="M130 0l120 683h-105l-120 -683h105z" />
<glyph unicode="J" horiz-adv-x="375" d="M285 683h105l-93 -525q-11 -65 -65.5 -111.5t-119.5 -46.5t-103 46.5t-27 111.5h105q-4 -22 8.5 -37.5t34.5 -15.5t40 15.5t22 37.5z" />
<glyph unicode="K" horiz-adv-x="536" d="M366 425l125 -425h-121l-97 336l-103 -105l-40 -231h-105l120 683h105l-54 -306l268 306h128z" />
<glyph unicode="L" horiz-adv-x="386" d="M145 683l-120 -683h326l18 105h-221l102 578h-105z" />
<glyph unicode="M" horiz-adv-x="665" d="M565 683h105l-120 -683h-105l85 485l-206 -276l-109 276l-85 -485h-105l120 683h105l112 -262z" />
<glyph unicode="N" horiz-adv-x="560" d="M460 683h105l-120 -683h-105l-132 444l-78 -444h-105l120 683h105l132 -444z" />
<glyph unicode="O" horiz-adv-x="520" d="M335 683q143 0 170 -123q10 -46 3 -87l-46 -263q-2 -9 -5.5 -23t-21 -50t-42.5 -64t-72 -50.5t-106 -22.5q-143 0 -170 123q-10 46 -3 87l46 263q2 9 5.5 23t21 50t42.5 64t72 50.5t106 22.5zM357 210l46 263q1 4 1.5 11t-2 25.5t-10 32t-27.5 25t-49 11.5 q-84 0 -116 -81l-7 -24l-46 -263q-1 -4 -1.5 -11t2 -25.5t9.5 -32t27 -25t49 -11.5t53 11t36.5 26.5t21 30.5t10.5 26z" />
<glyph unicode="P" horiz-adv-x="510" d="M355 682l42 -5q110 -23 131 -117q9 -39 0 -88q-26 -147 -164 -194q-46 -16 -83 -16h-105l-46 -262h-105l120 682h210zM299 367q4 0 11.5 0.5t26.5 6.5t34.5 15.5t31 31.5t20.5 51t-2 51t-21 31.5t-28 15.5q-16 6 -26 6l-10 1h-105l-37 -210h105z" />
<glyph unicode="Q" horiz-adv-x="520" d="M359 -23q58 -54 135 -72l-43 -104q-97 24 -172 93q-40 37 -88 107q-127 11 -148 130q-8 42 -1 79l46 263q2 9 5.5 23t21 50t42.5 64t72 50.5t106 22.5q143 0 170 -123q10 -46 3 -87l-46 -263q-1 -6 -3.5 -15.5t-13 -35.5t-24.5 -49t-41.5 -48.5t-60.5 -40.5 q21 -26 40 -44zM147 210q-1 -4 -1.5 -11t2 -25.5t9.5 -32t27 -25t49 -11.5t53 11t36.5 26.5t21 30.5t10.5 26l3 11l46 263q1 4 1.5 11t-2 25.5t-10 32t-27.5 25t-49 11.5q-84 0 -116 -81l-7 -24z" />
<glyph unicode="R" horiz-adv-x="540" d="M528 472q-9 -48 -30 -85.5t-49 -60t-54 -35t-54 -19.5l104 -272h-120l-100 262h-49l-46 -262h-105l120 682h210l42 -5q110 -23 131 -117q9 -39 0 -88zM231 577l-37 -210l111 1q13 1 26.5 5t34 13.5t36 32t21.5 53.5q5 29 -2 51t-21 31.5t-28 15.5q-16 6 -26 6l-10 1h-105 z" />
<glyph unicode="S" d="M188 504q-4 -26 22.5 -54.5t66.5 -56t79 -58.5t63.5 -72t16.5 -84q-14 -84 -82 -131.5t-159 -47.5h-158l18 104h158q4 0 10.5 0.5t23 4.5t30.5 11.5t26.5 22.5t16.5 36q5 26 -21.5 54.5t-66 56t-79 58.5t-63.5 72t-17 84q15 84 83 131.5t159 47.5h157l-19 -105h-157 q-4 0 -10.5 -0.5t-23.5 -4.5t-30.5 -11t-26.5 -22t-17 -36z" />
<glyph unicode="T" horiz-adv-x="400" d="M65 682h420l-19 -105h-158l-101 -577h-105l101 577h-157z" />
<glyph unicode="U" horiz-adv-x="540" d="M450 682h105l-83 -472q-2 -9 -5.5 -23t-21 -50t-42.5 -64t-72 -50.5t-106 -22.5q-143 0 -170 123q-10 46 -3 87l83 472h105l-83 -472q-1 -4 -1.5 -11t2 -25.5t9.5 -32t27 -25t49 -11.5t53 11t36.5 26.5t21 30.5t10.5 26l3 11z" />
<glyph unicode="V" horiz-adv-x="477" d="M453 682h109l-330 -682h-77l-90 682h110l56 -472z" />
<glyph unicode="W" horiz-adv-x="636" d="M595 682h106l-232 -682h-109l-32 314l-143 -314h-109l9 682h106l-13 -483l132 273h95l36 -273z" />
<glyph unicode="X" horiz-adv-x="520" d="M575 683l-225 -341l105 -342h-117l-78 256l-169 -256h-116l224 342l-104 341h116l79 -256l168 256h117z" />
<glyph unicode="Y" horiz-adv-x="440" d="M535 683l-256 -391l-51 -292h-105l51 292l-119 391h117l75 -273l172 273h116z" />
<glyph unicode="Z" d="M525 682l-17 -95l-379 -482h294l-18 -105h-420l16 94l379 483h-294l19 105h420z" />
<glyph unicode="[" horiz-adv-x="310" d="M346 578h-105l-111 -631h105l-18 -105h-210l148 841h210z" />
<glyph unicode="\" horiz-adv-x="319" d="M225 -105l-25 788h-95l25 -788h95z" />
<glyph unicode="]" horiz-adv-x="310" d="M76 578h105l-111 -631h-105l-17 -105h209l148 841h-210z" />
<glyph unicode="^" horiz-adv-x="577" d="M255 431h126l141 -286l-97 -59l-123 250l-210 -250l-77 59z" />
<glyph unicode="_" horiz-adv-x="578" d="M-32 74h578l-13 -74h-578z" />
<glyph unicode="`" horiz-adv-x="254" d="M119 735h105l51 -157h-79z" />
<glyph unicode="a" horiz-adv-x="502" d="M453 105l-18 -105q-9 0 -23.5 1.5t-46 16t-47.5 40.5q-44 -58 -93 -58h-52q-6 0 -16.5 1t-36.5 9.5t-44.5 23.5t-30 47.5t-3.5 76.5l37 210q1 6 4 17t16.5 38t32 47.5t54 37.5t79.5 17h210l-65 -367q2 -2 0 -14t9 -25.5t34 -13.5zM243 105q24 0 39.5 13.5t19.5 26.5l3 13 l47 262h-105q-24 0 -39.5 -13t-19.5 -26l-4 -13l-37 -210q-4 -24 7 -37t24 -15l13 -1h52z" />
<glyph unicode="b" horiz-adv-x="497" d="M327 525q6 0 16.5 -1t36 -9.5t43.5 -23t29.5 -47t3.5 -76.5l-37 -210q-20 -116 -130 -149q-30 -9 -54 -9h-53q-23 0 -34 13t-10 27l1 13l-62 -53h-52l129 735h105l-37 -210h105zM314 158l37 210q8 44 -34 51l-8 1h-105l-47 -262q-4 -24 6.5 -37t23.5 -15l13 -1h53 q23 0 39 13q14 14 18 27z" />
<glyph unicode="c" horiz-adv-x="468" d="M79 368l-37 -210q-8 -44 3 -76.5t31.5 -47.5t42.5 -23.5t38 -9.5l16 -1h52q44 0 79.5 16.5t54.5 39.5t31 46q12 24 16 40l4 16h-105q-4 -24 -19.5 -37t-29.5 -15l-13 -1h-52q-24 0 -35 13.5t-10 26.5l1 13l37 210q4 23 20 36q16 12 30 14l13 2h52q45 0 44 -44l-1 -8h105 q8 44 -2.5 76.5t-31 47t-42.5 23t-38 9.5l-16 1h-52q-119 0 -170 -109q-12 -27 -16 -48z" />
<glyph unicode="d" horiz-adv-x="502" d="M453 105l-18 -105q-9 0 -23.5 1.5t-46 16t-47.5 40.5q-44 -58 -93 -58h-52q-6 0 -16.5 1t-36.5 9.5t-44.5 23.5t-30 47.5t-3.5 76.5l37 210q1 6 4 17t16.5 38t32 47.5t54 37.5t79.5 17h105l37 210h105l-102 -577q2 -2 0 -14t9 -25.5t34 -13.5zM243 105q24 0 39.5 13.5 t19.5 26.5l3 13l47 262h-105q-24 0 -39.5 -13t-19.5 -26l-4 -13l-37 -210q-4 -24 7 -37t24 -15l13 -1h52z" />
<glyph unicode="e" horiz-adv-x="468" d="M447 368q-1 -6 -4 -17t-16 -38t-31.5 -48t-54 -38t-79.5 -17h-105l-10 -52q2 -2 0 -14t9 -25.5t35 -13.5h210l-18 -105h-210q-6 0 -16.5 1t-36.5 9.5t-44.5 23.5t-30 47.5t-3.5 76.5l37 210q1 6 4 17t16.5 38t32 47.5t54 37.5t79.5 17h52q6 0 16.5 -1t36.5 -9.5t44 -23 t29.5 -47t3.5 -76.5zM175 315h105q6 0 15 1.5t26 14.5t21 37q8 44 -35 51l-8 1h-52q-2 0 -5.5 -0.5t-13.5 -3t-18 -7.5t-15.5 -15.5t-10.5 -25.5z" />
<glyph unicode="f" horiz-adv-x="301" d="M271 630q-23 0 -38.5 -13t-19.5 -26l-4 -13q0 -2 -0.5 -5.5t0 -13t2.5 -16.5t7.5 -12.5t14.5 -5.5h105l-18 -105h-105l-84 -473q-8 -44 -30 -76.5t-47.5 -47t-49.5 -23.5q-26 -8 -42 -9l-16 -1l18 105q24 0 40 13q14 13 18 26l4 13l84 473h-53l18 105h51q-26 29 -18 74 q7 38 28 66t46.5 41t49.5 20t40 8l17 1h86l-18 -105h-86z" />
<glyph unicode="g" horiz-adv-x="497" d="M422 525h52l-102 -578q-8 -44 -30 -76.5t-47.5 -47t-50 -23t-40.5 -9.5l-17 -1h-179l19 105h179q23 0 38.5 13t19.5 26l3 13l10 53h-105q-6 0 -16.5 1t-36 9.5t-44 23.5t-30 47.5t-3.5 76.5l37 210q8 44 30 76.5t47.5 47t49.5 22.5q26 9 42 10l16 1h53q44 0 44 -44l-1 -8 zM295 105l46 263q8 44 -34 51l-8 1h-53q-23 0 -38.5 -13t-19.5 -26l-4 -13l-37 -210q-4 -24 6.5 -37t23.5 -15l13 -1h105z" />
<glyph unicode="h" horiz-adv-x="512" d="M327 525q6 0 16.5 -1t36 -9.5t43.5 -23t29.5 -47t3.5 -76.5l-64 -368h-105l64 368q8 44 -34 51l-8 1h-105l-74 -420h-105l129 737h105l-37 -212h105z" />
<glyph unicode="i" horiz-adv-x="244" d="M195 105l-18 -105q-6 0 -16.5 1t-36 9.5t-44 23.5t-30 47.5t-3.5 76.5l65 367h105l-65 -367q2 -2 0 -14t9 -25.5t34 -13.5zM254 735l-18 -105h-105l18 105h105z" />
<glyph unicode="j" horiz-adv-x="245" d="M117 523h105l-102 -576q-8 -44 -30 -76.5t-47.5 -47t-50 -23t-40.5 -9.5l-16 -1l19 105q23 0 38 13t19 26l3 13zM154 735h105l-18 -105h-105z" />
<glyph unicode="k" horiz-adv-x="459" d="M424 0h-121l-91 231l-53 -63l-29 -168h-105l129 735h105l-74 -420l195 210h131l-206 -223z" />
<glyph unicode="l" horiz-adv-x="245" d="M196 105l-18 -105q-6 0 -16.5 1t-36.5 9.5t-44.5 23.5t-30 47.5t-3.5 76.5l102 577h105l-102 -577q2 -2 0 -14t9 -25.5t35 -13.5z" />
<glyph unicode="m" horiz-adv-x="660" d="M485 525q44 0 73.5 -16t40 -39.5t15 -46.5t2.5 -39l-2 -16l-64 -368h-105l64 368q-2 2 0.5 13.5t-8.5 25t-34 13.5q-24 0 -39.5 -13t-19.5 -26l-4 -13l-64 -368h-105l64 368q8 44 -34 51l-8 1q-24 0 -39.5 -13t-19.5 -26l-4 -13l-64 -368h-105l92 525h53l43 -52 q4 23 19.5 36t29.5 15l13 1q3 0 8.5 -0.5t20 -4t25.5 -10.5t21.5 -21t12.5 -34q29 70 122 70z" />
<glyph unicode="n" horiz-adv-x="503" d="M458 370q8 44 -3 76t-31.5 46.5t-42.5 23t-38 8.5l-16 1h-52q-6 0 -15 -1.5t-26 -14.5t-21 -37l-43 53h-53l-92 -525h105l64 367q1 6 4 15t19 23.5t40 14.5h52q2 0 5.5 -0.5t12 -3t14.5 -7.5t10 -16t1 -26l-64 -367h105z" />
<glyph unicode="o" horiz-adv-x="487" d="M317 525q6 0 16.5 -1t36 -9.5t43.5 -23t29.5 -47t3.5 -76.5l-37 -210q-1 -6 -4 -17t-16 -38t-31.5 -48t-53.5 -38t-79 -17h-53q-6 0 -16.5 1t-36 9.5t-44 23.5t-30 47.5t-3.5 76.5l37 210q1 6 4 17t16 38t31.5 47.5t54 37.5t79.5 17h53zM304 158l37 210q-2 2 0.5 13.5 t-8.5 25t-34 13.5h-53q-6 0 -15 -1.5t-26 -14.5t-21 -36l-37 -210q2 -2 0 -14t9 -25.5t34 -13.5h53q6 0 15 1.5t25.5 14.5t20.5 37z" />
<glyph unicode="p" horiz-adv-x="498" d="M327 525q6 0 16.5 -1t36.5 -9.5t44 -23t29.5 -47t3.5 -76.5l-37 -210q-8 -44 -29.5 -76.5t-47.5 -47.5t-50.5 -23.5t-40.5 -9.5l-17 -1h-105l-38 -210h-105l130 735h53l43 -52q1 6 4 14.5t18.5 23t39.5 14.5h52zM315 158l37 210q-2 2 0.5 13.5t-8.5 25t-35 13.5h-52 q-2 0 -5.5 -0.5t-13.5 -3t-18 -7.5t-15.5 -15.5t-10.5 -25.5l-46 -263h105q6 0 15 1.5t26 14.5t21 37z" />
<glyph unicode="q" horiz-adv-x="507" d="M422 525h52l-130 -735h-105l38 210h-105q-6 0 -16.5 1t-36 9.5t-44 23.5t-30 47.5t-3.5 76.5l37 210q8 44 30 76.5t47.5 47t49.5 22.5q26 9 42 10l16 1h53q44 0 44 -44l-1 -8zM295 105l46 263q8 44 -34 51l-8 1h-53q-23 0 -38.5 -13t-19.5 -26l-4 -13l-37 -210 q-4 -24 6.5 -37t23.5 -15l13 -1h105z" />
<glyph unicode="r" horiz-adv-x="338" d="M252 420q-6 0 -15 -1.5t-26 -14.5t-21 -36l-37 -210q2 -2 0 -14t9 -25.5t34 -13.5l-18 -105q-6 0 -16.5 1t-36.5 9.5t-44.5 23.5t-30 47.5t-3.5 76.5l65 367h53l44 -52q0 2 1 5.5t5.5 12.5t10.5 16t17.5 12.5t26.5 5.5h105l-18 -105h-105z" />
<glyph unicode="s" horiz-adv-x="438" d="M22 0h178q6 0 17 1t39.5 9t52 21.5t45.5 44t29 71.5q9 53 -11.5 88t-56.5 50.5t-73 26.5t-61.5 23.5t-21.5 32.5q4 23 20 36q15 12 29 14l14 2h178l18 105h-178q-6 0 -17 -1t-39.5 -9t-52 -21.5t-46 -44t-29.5 -71.5q-8 -44 6 -76.5t40.5 -48.5t58 -28.5t59.5 -19 t45.5 -18.5t14.5 -29q-4 -24 -20 -37q-14 -13 -28 -15l-14 -1h-178z" />
<glyph unicode="t" horiz-adv-x="322" d="M321 420h-105l-47 -262q2 -2 0 -14t9 -25.5t35 -13.5h52l-18 -105h-52q-6 0 -16.5 1t-36.5 9.5t-44.5 23.5t-30 47.5t-3.5 76.5l47 262h-52l5 32l156 178h33l-19 -105h105z" />
<glyph unicode="u" horiz-adv-x="507" d="M414 158q2 -2 0 -14t9 -25.5t35 -13.5l-18 -105q-9 0 -23.5 1.5t-46 16t-47.5 40.5q-46 -58 -93 -58h-53q-6 0 -16.5 1t-36 9.5t-44 23.5t-30 47.5t-3.5 76.5l65 367h105l-65 -367q-4 -24 7 -37t23 -15l13 -1h53q23 0 38.5 13.5t19.5 26.5l3 13l65 367h105z" />
<glyph unicode="v" horiz-adv-x="420" d="M358 525h109l-249 -525h-105l-66 525h110l35 -367z" />
<glyph unicode="w" horiz-adv-x="715" d="M652 525h110l-250 -525h-105l-40 315l-149 -315h-105l-66 525h110l35 -367l159 325h93l43 -325z" />
<glyph unicode="x" horiz-adv-x="440" d="M477 525l-186 -262l94 -263h-115l-63 182l-126 -182h-116l187 263l-95 262h116l62 -182l127 182h115z" />
<glyph unicode="y" horiz-adv-x="512" d="M374 525h105l-102 -578q-8 -44 -30 -76.5t-47.5 -47t-49.5 -23.5q-26 -8 -42 -9l-16 -1h-179l19 105h179q23 0 39 13q14 13 18 26l4 13l10 53h-105q-6 0 -16.5 1t-36 9.5t-44 23.5t-30 47.5t-3.5 76.5l65 367h105l-65 -367q-4 -24 7 -37t23 -15l13 -1h105z" />
<glyph unicode="z" horiz-adv-x="395" d="M402 525l-13 -73l-241 -347h180l-18 -105h-315l13 74l248 346h-187l18 105h315z" />
<glyph unicode="{" horiz-adv-x="324" d="M199 -158h32l18 105h-32q-53 0 -42 54l27 157q1 4 1.5 10t-1 22.5t-7.5 29t-21 22.5t-39 10l4 21q37 0 62 23.5t31 47.5l7 24l28 157q8 51 62 53h31l19 105h-32q-35 0 -71.5 -14.5t-70 -52t-43.5 -91.5l-28 -157q-8 -46 -103 -61l-13 -2l-15 -84q4 0 11 -1.5t24.5 -6 t30 -11t22 -18t6.5 -26.5l-27 -158q-11 -57 20 -107.5t109 -50.5z" />
<glyph unicode="|" horiz-adv-x="213" d="M70 -158l148 841h-73l-148 -841h73z" />
<glyph unicode="}" horiz-adv-x="324" d="M-21 -158h-31l17 105h32q51 0 62 54l27 157l2.5 10t9 22.5t17.5 29t29 22.5t43 10l4 21q-65 0 -69 70l1 25l28 157q8 51 -44 53h-31l19 105h32q58 0 100.5 -39.5t28.5 -118.5l-28 -157q-4 -24 20 -40q22 -15 48 -19l26 -4l-15 -84q-4 0 -11.5 -1.5t-26 -6t-33.5 -11 t-28.5 -18t-16.5 -26.5l-27 -158q-11 -58 -59 -108t-126 -50z" />
<glyph unicode="~" horiz-adv-x="595" d="M27 211q10 58 58 107.5t126 49.5q35 0 63 -12.5t40 -23.5t28 -31q18 -22 29.5 -30t31.5 -8q51 0 62 54l105 -1q-10 -58 -58.5 -108t-127.5 -50q-34 0 -62 13t-39 23.5t-29 31.5q-18 22 -29 29.5t-32 7.5q-53 0 -61 -53z" />
<glyph unicode="&#xa1;" horiz-adv-x="250" d="M147 684l-18 -105h105l18 105h-105zM17 1h126l17 98l34 375h-63l-97 -375z" />
<glyph unicode="&#xa2;" horiz-adv-x="521" d="M136 0l37 103q-62 32 -92 96t-16 142q18 104 102.5 180t189.5 82l29 80h75l-32 -86q61 -14 101 -54l-78 -84q-25 26 -60 35l-114 -309q7 -1 21 -1q61 0 112 40l49 -83q-83 -62 -180 -62q-20 0 -40 3l-29 -82h-75zM170 341q-15 -81 43 -129l104 283q-54 -13 -95.5 -56 t-51.5 -98z" />
<glyph unicode="&#xa3;" horiz-adv-x="471" d="M29 305h96q4 -61 -2 -95q-12 -68 -106 -99l-24 -6l-17 -105h420l18 105h-262q5 2 18.5 11.5t32.5 35.5t25 58q7 42 2 95h166l13 73h-187q-4 51 5 95q2 13 8 27.5t18.5 33.5t38 31.5t58.5 12.5h105l19 105h-105q-55 0 -101 -20.5t-75 -53.5t-47 -67.5t-24 -68.5 q-7 -35 -3 -95h-77z" />
<glyph unicode="&#xa4;" horiz-adv-x="703" d="M613 341q-15 -82 -74 -146l118 -143l-61 -52l-118 143q-74 -49 -155 -49q-83 0 -138 49l-168 -143l-43 52l168 143q-37 65 -22 146q13 82 74 147l-118 142l61 52l118 -142q74 48 155 48q80 0 138 -48l168 142l43 -52l-168 -142q36 -64 22 -147zM342 199q58 0 106.5 41.5 t59.5 100.5q10 59 -24 100.5t-92 41.5q-59 0 -108 -41.5t-59 -100.5q-11 -59 23.5 -100.5t93.5 -41.5z" />
<glyph unicode="&#xa5;" d="M55 251l13 74h115l-108 358h116l76 -274l171 274h117l-235 -358h115l-13 -74h-131l-9 -52h131l-13 -74h-131l-23 -126h-105l23 126h-131l13 74h131l9 52h-131z" />
<glyph unicode="&#xa6;" horiz-adv-x="214" d="M145 683h74l-65 -368h-74zM-3 -158l65 368h74l-65 -368h-74z" />
<glyph unicode="&#xa7;" horiz-adv-x="447" d="M327 184q59 -42 44 -131q-8 -44 -30 -76.5t-47.5 -47.5t-49.5 -23q-26 -9 -42 -10l-16 -1h-158l19 105h158q6 0 15 1.5t25.5 14.5t20.5 37q8 44 -35 51l-8 1h-53q-6 0 -16.5 1t-36 9.5t-43.5 23.5t-29.5 47.5t-3.5 76.5q15 89 89 131q-58 40 -43 131q8 44 30 76.5 t47.5 47.5t49.5 23q26 9 42 10l16 1h158l-19 -105h-158q-6 0 -15 -1.5t-25.5 -14.5t-20.5 -37q-8 -44 35 -51l8 -1h53q6 0 16.5 -1t36 -9.5t43.5 -23.5t29.5 -47.5t3.5 -76.5q-15 -91 -90 -131zM303 263l9 52q-2 2 0 14t-9 25.5t-34 13.5h-53q-6 0 -15 -1.5t-25.5 -14.5 t-20.5 -37l-9 -52q2 -2 0 -14t9 -25.5t34 -13.5h53q6 0 15 1.5t25.5 14.5t20.5 37z" />
<glyph unicode="&#xa8;" horiz-adv-x="354" d="M398 704l-19 -105h-105l19 105h105zM219 704l-19 -105h-105l19 105h105z" />
<glyph unicode="&#xa9;" horiz-adv-x="782" d="M507 417q-26 31 -70.5 31t-81.5 -31q-36 -31 -44 -76t17 -76q26 -31 70.5 -31t81.5 31l42 -50q-62 -53 -136 -53t-117 53q-43 52 -29.5 126.5t74.5 126.5q62 52 136 52t117 -52zM466 683q141 0 223.5 -100.5t57.5 -241.5q-26 -141 -143 -241t-258 -100t-223.5 100 t-57.5 241t142.5 241.5t258.5 100.5zM359 77q109 0 200 77.5t111 186.5q19 110 -45 187.5t-173 77.5t-200 -77.5t-110 -187.5q-20 -109 44 -186.5t173 -77.5z" />
<glyph unicode="&#xaa;" horiz-adv-x="280" d="M241 683q29 0 50.5 -19.5t14.5 -58.5l-18 -105q-5 -29 -29.5 -54t-63.5 -25h-52q-29 0 -50.5 20t-14.5 59q2 13 8 23.5t12 18.5t18.5 15t20.5 11t26 9.5t27 7.5l31 7l31 7l1 6q5 26 -21 26h-109l9 52h109zM235 500l8 45q-89 -21 -99 -26q-12 -7 -14 -19q-5 -25 22 -27h52 q26 0 31 27zM49 336l9 53h210l-9 -53h-210zM34 252l9 53h210l-9 -53h-210z" />
<glyph unicode="&#xab;" horiz-adv-x="586" d="M404 53l-163 210l237 210h126l-233 -210l159 -210h-126zM183 53l-162 210l236 210h126l-233 -210l159 -210h-126z" />
<glyph unicode="&#xac;" horiz-adv-x="490" d="M60 399h420l-46 -262h-105l27 157h-315z" />
<glyph unicode="&#xad;" horiz-adv-x="385" d="M45 315h315l-18 -105h-315z" />
<glyph unicode="&#xae;" horiz-adv-x="487" d="M364 513q-3 -17 -11.5 -28.5t-12.5 -14t-18 -10.5l32 -84h-44l-27 78h-46l-14 -78h-39l34 196h97q22 0 38 -15t11 -44zM301 492q20 0 24 20q4 21 -17 21h-58l-7 -41h58zM318 683q86 0 136.5 -61.5t35.5 -147.5t-87.5 -147t-158.5 -61t-136 61t-35 147t87 147.5t158 61.5z M254 320q64 0 117 45t64 109t-26 109t-101 45t-117 -45t-64 -109t26 -109t101 -45z" />
<glyph unicode="&#xaf;" horiz-adv-x="333" d="M362 620l13 73h-263l-13 -73h263z" />
<glyph unicode="&#xb0;" horiz-adv-x="269" d="M92 583q8 41 42.5 70.5t75.5 29.5t65 -29.5t16 -70.5q-7 -41 -41 -70.5t-75 -29.5t-65.5 29.5t-17.5 70.5zM143 583q-3 -20 9 -34.5t32 -14.5t36.5 14.5t19.5 34.5q4 20 -7.5 34t-31.5 14t-37 -14t-21 -34z" />
<glyph unicode="&#xb1;" horiz-adv-x="437" d="M295 394h131l-19 -105h-131l-23 -131h-105l23 131h-131l19 105h131l23 131h105zM-10 0l18 105h367l-18 -105h-367z" />
<glyph unicode="&#xb2;" horiz-adv-x="310" d="M332 579q-17 -95 -126 -167l-26 -16h119l-14 -81h-229l14 78l18 10.5t40 27t52 41.5t44.5 50.5t26.5 56.5q4 20 -19 23h-32q-24 0 -28 -33l-82 1q7 41 39.5 77t84.5 36h32q38 0 66.5 -26t19.5 -78z" />
<glyph unicode="&#xb3;" horiz-adv-x="310" d="M246 683q4 0 11 -0.5t24 -6.5t29 -15.5t19 -31.5t2 -51q-6 -43 -45 -79q26 -31 18 -75q-8 -47 -39 -74t-57 -31l-27 -4h-32q-29 0 -48.5 11.5t-26.5 28.5t-9.5 34t-0.5 29l1 11h82q-3 -15 1 -23t10 -9l5 -1h32q10 0 16.5 7t8.5 13l2 7q3 17 -2 26t-11 10.5t-14 2.5h-2 h-27l13 70h24q17 0 28.5 10t14.5 20l3 11q4 28 -18 28h-32q-2 0 -6 -1t-11.5 -9t-9.5 -22h-82q1 5 3 12.5t11 27t21.5 34.5t36 27.5t52.5 12.5h32z" />
<glyph unicode="&#xb4;" horiz-adv-x="254" d="M303 735h-105l-107 -157h79z" />
<glyph unicode="&#xb5;" horiz-adv-x="512" d="M463 105l-18 -105q-9 0 -23.5 1.5t-46 16t-47.5 40.5q-46 -58 -93 -58h-53q-24 0 -51 9l-39 -219h-105l130 735h105l-65 -367q-4 -24 6.5 -37t23.5 -15l13 -1h53q23 0 39 13q14 14 18 27l4 13l65 367h105l-65 -367q2 -2 0 -14t9 -25.5t35 -13.5z" />
<glyph unicode="&#xb6;" horiz-adv-x="552" d="M219 -105l139 788h73l-139 -788h-73zM484 683h73l-139 -788h-73zM58 473q15 87 87.5 148.5t159.5 61.5l-74 -420q-87 0 -138 61.5t-35 148.5z" />
<glyph unicode="&#xb7;" horiz-adv-x="175" d="M27 210l18 105h105l-18 -105h-105z" />
<glyph unicode="&#xb8;" horiz-adv-x="248" d="M98 -35l16 88h-84l-21 -116h11q17 0 27.5 -12.5t7.5 -29.5t-17.5 -29.5t-31.5 -12.5h-42l-11 -63h41q67 0 106.5 25t45.5 64q5 30 -8.5 53.5t-39.5 32.5z" />
<glyph unicode="&#xb9;" horiz-adv-x="279" d="M255 683l-51 -287h64l-14 -81h-209l14 81h64l36 205h-64l15 82h145z" />
<glyph unicode="&#xba;" horiz-adv-x="280" d="M242 683q3 0 8.5 -0.5t18 -4.5t21.5 -11.5t14.5 -23.5t1.5 -38l-18 -105q-1 -3 -2 -8.5t-8 -19t-16 -24t-26.5 -19t-39.5 -8.5h-53q-3 0 -8.5 0.5t-18 4.5t-22 11.5t-15 24t-1.5 38.5l18 105q1 3 2 8.5t8 19t16 23.5t27 18.5t40 8.5h53zM236 500l18 105q5 26 -21 26h-53 q-26 0 -31 -26l-18 -105q-5 -27 21 -27h53q26 0 31 27zM34 252l9 53h210l-9 -53h-210zM49 336l9 53h210l-9 -53h-210z" />
<glyph unicode="&#xbb;" horiz-adv-x="586" d="M110 53l237 210l-163 210h-126l159 -210l-233 -210h126zM331 53l236 210l-162 210h-126l159 -210l-233 -210h126z" />
<glyph unicode="&#xbc;" horiz-adv-x="715" d="M163 0h-86l528 683h86zM270 683l-51 -287h64l-14 -81h-209l14 81h64l36 205h-64l15 82h145zM614 144h31l-14 -81h-31l-12 -64h-82l12 64h-134l13 74l125 230h89l-127 -223h48l11 64h82z" />
<glyph unicode="&#xbd;" horiz-adv-x="729" d="M163 0h-86l528 683h86zM270 683l-51 -287h64l-14 -81h-209l14 81h64l36 205h-64l15 82h145zM680 263q-16 -94 -125 -167l-26 -15h119l-15 -82h-230l14 78l18 10.5t40 27t52.5 41.5t44.5 50.5t26 56.5q4 23 -18 23h-33q-22 0 -28 -33h-82q7 42 40 78.5t84 36.5h33 q38 0 66.5 -26.5t19.5 -78.5z" />
<glyph unicode="&#xbe;" horiz-adv-x="718" d="M261 683q4 0 11 -0.5t24 -6.5t29 -15.5t19 -31.5t2 -51q-6 -43 -45 -79q26 -31 18 -75q-8 -47 -39 -74q-32 -27 -58 -31l-26 -4h-32q-29 0 -48.5 11.5t-26.5 28.5t-9 34q-4 17 -2 29l2 11h82q-3 -15 1 -23q3 -8 9 -9l6 -1h32q10 0 16.5 7t8.5 13l2 7q3 17 -2 26t-11 10.5 t-14 2.5h-2h-27l13 70h24q17 0 28.5 10t14.5 20l3 11q4 28 -18 28h-32q-2 0 -6 -1t-11.5 -9t-9.5 -22h-82q1 5 3 12.5t11 27t21.5 34.5t36 27.5t52.5 12.5h32zM166 1h-86l528 682h86zM617 145h31l-14 -81h-31l-11 -64h-82l11 64h-135l13 74l125 230h90l-127 -223h48l11 64 h82z" />
<glyph unicode="&#xbf;" horiz-adv-x="437" d="M147 1q-58 0 -100.5 39.5t-28.5 118.5q5 31 23.5 62t35.5 49t48 47q3 3 16 15t17 16l15.5 15t16 16.5l13 16t13 18.5l10 18.5t8.5 20.5t5 21h75q-24 -132 -122 -225q-36 -35 -51 -53.5t-18 -36.5q-10 -51 42 -53h52q53 2 63 53h105q-10 -54 -43.5 -91.5t-70 -52 t-71.5 -14.5h-53zM362 684l-18 -105h-105l18 105h105z" />
<glyph unicode="&#xc0;" d="M383 683l62 -683h-108l-10 105h-228l-46 -105h-108l302 683h136zM146 210h172l-22 368zM180 883h105l51 -157h-79z" />
<glyph unicode="&#xc1;" d="M383 683l62 -683h-108l-10 105h-228l-46 -105h-108l302 683h136zM146 210h172l-22 368zM466 883h-105l-107 -157h79z" />
<glyph unicode="&#xc2;" d="M383 683l62 -683h-108l-10 105h-228l-46 -105h-108l302 683h136zM146 210h172l-22 368zM455 727l-99 157h-63l-153 -157h94l77 79l49 -79h95z" />
<glyph unicode="&#xc3;" d="M383 683l62 -683h-108l-10 105h-228l-46 -105h-108l302 683h136zM146 210h172l-22 368zM377 823q14 0 26.5 12.5t18.5 24.5l5 13h53q-6 -37 -44 -87t-75 -50q-22 0 -62 25t-55 25q-14 0 -26 -12q-13 -14 -19 -26l-6 -12h-52q6 36 44 86.5t74 50.5q22 0 63 -25t55 -25z " />
<glyph unicode="&#xc4;" d="M383 683l62 -683h-108l-10 105h-228l-46 -105h-108l302 683h136zM146 210h172l-22 368zM461 852l-19 -105h-105l19 105h105zM282 852l-19 -105h-105l19 105h105z" />
<glyph unicode="&#xc5;" d="M383 683l62 -683h-108l-10 105h-228l-46 -105h-108l302 683h136zM146 210h172l-22 368zM211 804q8 41 42 70.5t75 29.5t65 -29.5t17 -70.5q-8 -41 -42 -70t-75 -29t-65 29t-17 70zM272 804q-3 -16 6 -27t25 -11t29 11t16 27t-6 27t-25 11t-29 -11t-16 -27z" />
<glyph unicode="&#xc6;" horiz-adv-x="781" d="M645 578q-106 -6 -121 -92q-4 -24 2 -42.5t17 -27.5t26.5 -14.5t25.5 -6.5t18 -1h105l-19 -105h-105q-11 0 -25 -2.5t-35.5 -10.5t-38.5 -28.5t-22 -50.5q-4 -24 2 -42.5t17 -27.5t26.5 -14.5t25.5 -6.5t18 -1h157l-18 -105h-157q-55 0 -101 25l-4 -25h-104l18 105h-231 l-70 -105h-117l466 683h158l-4 -25q54 25 109 25h157l-19 -105h-157zM371 210q17 81 87 131q-55 55 -39 145l14 79l-239 -355h177z" />
<glyph unicode="&#xc7;" horiz-adv-x="505" d="M249 -35l7 38q128 18 186 146q15 34 20 61h-105q-1 -4 -3 -11t-10.5 -25.5t-21 -32t-36.5 -25t-53 -11.5t-49 11t-27 26.5t-10 30.5t-1 26l1 11l46 263q1 4 2.5 11t10.5 25.5t21 32t36 25t53 11.5t49 -11t27 -26.5t10 -30.5t2 -26l-1 -11h105q1 4 2 12t0.5 29.5t-4 41.5 t-15 44t-30 41.5t-51 29.5t-75.5 12q-150 0 -220 -135q-21 -41 -27 -75l-46 -263q-1 -4 -1.5 -10.5t-1 -25.5t2.5 -37t11 -41t22 -40.5t39 -32t58 -20.5l-12 -66h11q17 0 27.5 -12.5t7.5 -29.5t-17.5 -29.5t-31.5 -12.5h-42l-11 -63h41q67 0 106.5 25t45.5 64 q5 30 -8.5 53.5t-39.5 32.5z" />
<glyph unicode="&#xc8;" horiz-adv-x="453" d="M391 105l-18 -105h-158q-34 0 -67 11t-61.5 33t-42.5 61.5t-5 91.5q16 91 90 144q-55 55 -39 145q12 67 56.5 114t93 65t95.5 18h158l-19 -105h-158q-106 -6 -121 -92q-4 -24 2.5 -42.5t17.5 -27.5t26.5 -14.5t25 -6.5t17.5 -1h105l-19 -105h-105q-11 0 -25 -2.5 t-35.5 -10.5t-38.5 -28.5t-22 -50.5q-4 -24 2.5 -42.5t17.5 -27.5t26.5 -14.5t25 -6.5t17.5 -1h158zM200 883h105l51 -157h-79z" />
<glyph unicode="&#xc9;" horiz-adv-x="453" d="M391 105l-18 -105h-158q-34 0 -67 11t-61.5 33t-42.5 61.5t-5 91.5q16 91 90 144q-55 55 -39 145q12 67 56.5 114t93 65t95.5 18h158l-19 -105h-158q-106 -6 -121 -92q-4 -24 2.5 -42.5t17.5 -27.5t26.5 -14.5t25 -6.5t17.5 -1h105l-19 -105h-105q-11 0 -25 -2.5 t-35.5 -10.5t-38.5 -28.5t-22 -50.5q-4 -24 2.5 -42.5t17.5 -27.5t26.5 -14.5t25 -6.5t17.5 -1h158zM486 883h-105l-107 -157h79z" />
<glyph unicode="&#xca;" horiz-adv-x="453" d="M391 105l-18 -105h-158q-34 0 -67 11t-61.5 33t-42.5 61.5t-5 91.5q16 91 90 144q-55 55 -39 145q12 67 56.5 114t93 65t95.5 18h158l-19 -105h-158q-106 -6 -121 -92q-4 -24 2.5 -42.5t17.5 -27.5t26.5 -14.5t25 -6.5t17.5 -1h105l-19 -105h-105q-11 0 -25 -2.5 t-35.5 -10.5t-38.5 -28.5t-22 -50.5q-4 -24 2.5 -42.5t17.5 -27.5t26.5 -14.5t25 -6.5t17.5 -1h158zM475 727l-99 157h-63l-153 -157h94l77 79l49 -79h95z" />
<glyph unicode="&#xcb;" horiz-adv-x="453" d="M391 105l-18 -105h-158q-34 0 -67 11t-61.5 33t-42.5 61.5t-5 91.5q16 91 90 144q-55 55 -39 145q12 67 56.5 114t93 65t95.5 18h158l-19 -105h-158q-106 -6 -121 -92q-4 -24 2.5 -42.5t17.5 -27.5t26.5 -14.5t25 -6.5t17.5 -1h105l-19 -105h-105q-11 0 -25 -2.5 t-35.5 -10.5t-38.5 -28.5t-22 -50.5q-4 -24 2.5 -42.5t17.5 -27.5t26.5 -14.5t25 -6.5t17.5 -1h158zM481 852l-19 -105h-105l19 105h105zM302 852l-19 -105h-105l19 105h105z" />
<glyph unicode="&#xcc;" horiz-adv-x="245" d="M130 0l120 683h-105l-120 -683h105zM63 883h105l51 -157h-79z" />
<glyph unicode="&#xcd;" horiz-adv-x="245" d="M130 0l120 683h-105l-120 -683h105zM349 883h-105l-107 -157h79z" />
<glyph unicode="&#xce;" horiz-adv-x="245" d="M130 0l120 683h-105l-120 -683h105zM338 727l-99 157h-63l-153 -157h94l77 79l49 -79h95z" />
<glyph unicode="&#xcf;" horiz-adv-x="245" d="M130 0l120 683h-105l-120 -683h105zM344 852l-19 -105h-105l19 105h105zM165 852l-19 -105h-105l19 105h105z" />
<glyph unicode="&#xd0;" horiz-adv-x="540" d="M10 242l-16 68l91 34l60 339h210l42 -5q110 -23 131 -117q9 -39 0 -88l-46 -263q-2 -9 -5.5 -23t-21 -50t-42.5 -64t-72 -50.5t-106 -22.5h-210l46 265zM377 210l46 263q5 29 -2 51t-21 31.5t-28 15.5q-16 7 -26 7h-10h-105l-33 -191l71 27l16 -68l-101 -39l-36 -202h105 q29 0 53 11t36.5 26.5t21 30.5t10.5 26z" />
<glyph unicode="&#xd1;" horiz-adv-x="560" d="M460 683h105l-120 -683h-105l-132 444l-78 -444h-105l120 683h105l132 -444zM420 823q14 0 26 13q12 12 18 24l6 13h53q-6 -37 -44 -87t-75 -50q-22 0 -62 25t-55 25q-14 0 -27 -12q-12 -14 -18 -26l-6 -12h-52q6 36 44 86.5t74 50.5q22 0 63 -25t55 -25z" />
<glyph unicode="&#xd2;" horiz-adv-x="520" d="M335 683q143 0 170 -123q10 -46 3 -87l-46 -263q-2 -9 -5.5 -23t-21 -50t-42.5 -64t-72 -50.5t-106 -22.5q-143 0 -170 123q-10 46 -3 87l46 263q2 9 5.5 23t21 50t42.5 64t72 50.5t106 22.5zM357 210l46 263q1 4 1.5 11t-2 25.5t-10 32t-27.5 25t-49 11.5 q-84 0 -116 -81l-7 -24l-46 -263q-1 -4 -1.5 -11t2 -25.5t9.5 -32t27 -25t49 -11.5t53 11t36.5 26.5t21 30.5t10.5 26zM200 883h105l51 -157h-79z" />
<glyph unicode="&#xd3;" horiz-adv-x="520" d="M335 683q143 0 170 -123q10 -46 3 -87l-46 -263q-2 -9 -5.5 -23t-21 -50t-42.5 -64t-72 -50.5t-106 -22.5q-143 0 -170 123q-10 46 -3 87l46 263q2 9 5.5 23t21 50t42.5 64t72 50.5t106 22.5zM357 210l46 263q1 4 1.5 11t-2 25.5t-10 32t-27.5 25t-49 11.5 q-84 0 -116 -81l-7 -24l-46 -263q-1 -4 -1.5 -11t2 -25.5t9.5 -32t27 -25t49 -11.5t53 11t36.5 26.5t21 30.5t10.5 26zM486 883h-105l-107 -157h79z" />
<glyph unicode="&#xd4;" horiz-adv-x="520" d="M335 683q143 0 170 -123q10 -46 3 -87l-46 -263q-2 -9 -5.5 -23t-21 -50t-42.5 -64t-72 -50.5t-106 -22.5q-143 0 -170 123q-10 46 -3 87l46 263q2 9 5.5 23t21 50t42.5 64t72 50.5t106 22.5zM357 210l46 263q1 4 1.5 11t-2 25.5t-10 32t-27.5 25t-49 11.5 q-84 0 -116 -81l-7 -24l-46 -263q-1 -4 -1.5 -11t2 -25.5t9.5 -32t27 -25t49 -11.5t53 11t36.5 26.5t21 30.5t10.5 26zM475 727l-99 157h-63l-153 -157h94l77 79l49 -79h95z" />
<glyph unicode="&#xd5;" horiz-adv-x="520" d="M335 683q143 0 170 -123q10 -46 3 -87l-46 -263q-2 -9 -5.5 -23t-21 -50t-42.5 -64t-72 -50.5t-106 -22.5q-143 0 -170 123q-10 46 -3 87l46 263q2 9 5.5 23t21 50t42.5 64t72 50.5t106 22.5zM357 210l46 263q1 4 1.5 11t-2 25.5t-10 32t-27.5 25t-49 11.5 q-84 0 -116 -81l-7 -24l-46 -263q-1 -4 -1.5 -11t2 -25.5t9.5 -32t27 -25t49 -11.5t53 11t36.5 26.5t21 30.5t10.5 26zM397 823q14 0 26.5 12.5t18.5 24.5l5 13h53q-6 -37 -44 -87t-75 -50q-22 0 -62 25t-55 25q-14 0 -26 -12q-13 -14 -19 -26l-6 -12h-52q6 36 44 86.5 t74 50.5q22 0 63 -25t55 -25z" />
<glyph unicode="&#xd6;" horiz-adv-x="520" d="M335 683q143 0 170 -123q10 -46 3 -87l-46 -263q-2 -9 -5.5 -23t-21 -50t-42.5 -64t-72 -50.5t-106 -22.5q-143 0 -170 123q-10 46 -3 87l46 263q2 9 5.5 23t21 50t42.5 64t72 50.5t106 22.5zM357 210l46 263q1 4 1.5 11t-2 25.5t-10 32t-27.5 25t-49 11.5 q-84 0 -116 -81l-7 -24l-46 -263q-1 -4 -1.5 -11t2 -25.5t9.5 -32t27 -25t49 -11.5t53 11t36.5 26.5t21 30.5t10.5 26zM481 852l-19 -105h-105l19 105h105zM302 852l-19 -105h-105l19 105h105z" />
<glyph unicode="&#xd7;" horiz-adv-x="442" d="M388 151l-88 -74l-91 111l-131 -111l-62 74l132 112l-93 111l88 74l92 -111l130 111l62 -74l-131 -111z" />
<glyph unicode="&#xd8;" horiz-adv-x="520" d="M44 -13l-56 38l61 79q-17 53 -7 106l46 263q2 9 5.5 23t21 50t42.5 64t72 50.5t106 22.5q82 0 128 -44l42 54l56 -38l-61 -78q8 -23 10 -49t0 -40l-2 -15l-46 -263q-2 -9 -5.5 -23t-21 -50t-42.5 -64t-72 -50.5t-106 -22.5q-82 0 -128 43zM193 473l-42 -237l239 309 q-21 33 -74 33q-84 0 -116 -81zM357 210l41 234l-238 -307q20 -32 73 -32q29 0 53 11t36.5 26.5t21 30.5t10.5 26z" />
<glyph unicode="&#xd9;" horiz-adv-x="540" d="M450 682h105l-83 -472q-2 -9 -5.5 -23t-21 -50t-42.5 -64t-72 -50.5t-106 -22.5q-143 0 -170 123q-10 46 -3 87l83 472h105l-83 -472q-1 -4 -1.5 -11t2 -25.5t9.5 -32t27 -25t49 -11.5t53 11t36.5 26.5t21 30.5t10.5 26l3 11zM210 883h105l51 -157h-79z" />
<glyph unicode="&#xda;" horiz-adv-x="540" d="M450 682h105l-83 -472q-2 -9 -5.5 -23t-21 -50t-42.5 -64t-72 -50.5t-106 -22.5q-143 0 -170 123q-10 46 -3 87l83 472h105l-83 -472q-1 -4 -1.5 -11t2 -25.5t9.5 -32t27 -25t49 -11.5t53 11t36.5 26.5t21 30.5t10.5 26l3 11zM496 883h-105l-107 -157h79z" />
<glyph unicode="&#xdb;" horiz-adv-x="540" d="M450 682h105l-83 -472q-2 -9 -5.5 -23t-21 -50t-42.5 -64t-72 -50.5t-106 -22.5q-143 0 -170 123q-10 46 -3 87l83 472h105l-83 -472q-1 -4 -1.5 -11t2 -25.5t9.5 -32t27 -25t49 -11.5t53 11t36.5 26.5t21 30.5t10.5 26l3 11zM485 727l-99 157h-63l-153 -157h94l77 79 l49 -79h95z" />
<glyph unicode="&#xdc;" horiz-adv-x="540" d="M450 682h105l-83 -472q-2 -9 -5.5 -23t-21 -50t-42.5 -64t-72 -50.5t-106 -22.5q-143 0 -170 123q-10 46 -3 87l83 472h105l-83 -472q-1 -4 -1.5 -11t2 -25.5t9.5 -32t27 -25t49 -11.5t53 11t36.5 26.5t21 30.5t10.5 26l3 11zM491 852l-19 -105h-105l19 105h105zM312 852 l-19 -105h-105l19 105h105z" />
<glyph unicode="&#xdd;" horiz-adv-x="440" d="M535 683l-256 -391l-51 -292h-105l51 292l-119 391h117l75 -273l172 273h116zM446 883h-105l-107 -157h79z" />
<glyph unicode="&#xde;" horiz-adv-x="510" d="M226 548h105l42 -5q110 -23 131 -117q9 -39 0 -88q-26 -147 -164 -194q-46 -16 -83 -16h-105l-22 -128h-105l120 683h105zM276 233q4 0 11.5 0.5t26.5 6.5t34.5 15.5t30.5 31.5t20 51t-1.5 51t-20.5 31.5t-28.5 15.5t-24.5 6l-11 1h-105l-37 -210h105z" />
<glyph unicode="&#xdf;" horiz-adv-x="567" d="M356 368q-3 -17 16.5 -30.5t48 -26t56.5 -29.5t44 -48.5t8 -75.5t-29.5 -76.5t-47.5 -47.5t-50 -24q-26 -8 -42 -9l-16 -1h-105l18 105h105q6 0 15 1.5t26 14.5t21 37q4 23 -14.5 38.5t-47.5 27t-57.5 26t-44.5 44.5t-9 74q6 32 29.5 63.5t49 53t47.5 47t26 46.5 q8 44 -34 51l-8 1h-63q-24 0 -39.5 -13t-19.5 -26l-4 -13l-111 -631q-8 -44 -30 -76.5t-47.5 -47t-50 -23t-40.5 -9.5l-16 -1l18 105q23 0 38.5 13t19.5 26l3 13l111 631q20 115 132 148q30 9 54 9h63q6 0 16.5 -1t36 -9.5t43.5 -23t29.5 -47t3.5 -76.5q-5 -32 -29 -65.5 t-49.5 -56t-48 -47t-25.5 -41.5z" />
<glyph unicode="&#xe0;" horiz-adv-x="502" d="M453 105l-18 -105q-9 0 -23.5 1.5t-46 16t-47.5 40.5q-44 -58 -93 -58h-52q-6 0 -16.5 1t-36.5 9.5t-44.5 23.5t-30 47.5t-3.5 76.5l37 210q1 6 4 17t16.5 38t32 47.5t54 37.5t79.5 17h210l-65 -367q2 -2 0 -14t9 -25.5t34 -13.5zM243 105q24 0 39.5 13.5t19.5 26.5l3 13 l47 262h-105q-24 0 -39.5 -13t-19.5 -26l-4 -13l-37 -210q-4 -24 7 -37t24 -15l13 -1h52zM185 735h105l51 -157h-79z" />
<glyph unicode="&#xe1;" horiz-adv-x="502" d="M453 105l-18 -105q-9 0 -23.5 1.5t-46 16t-47.5 40.5q-44 -58 -93 -58h-52q-6 0 -16.5 1t-36.5 9.5t-44.5 23.5t-30 47.5t-3.5 76.5l37 210q1 6 4 17t16.5 38t32 47.5t54 37.5t79.5 17h210l-65 -367q2 -2 0 -14t9 -25.5t34 -13.5zM243 105q24 0 39.5 13.5t19.5 26.5l3 13 l47 262h-105q-24 0 -39.5 -13t-19.5 -26l-4 -13l-37 -210q-4 -24 7 -37t24 -15l13 -1h52zM471 735h-105l-107 -157h79z" />
<glyph unicode="&#xe2;" horiz-adv-x="502" d="M453 105l-18 -105q-9 0 -23.5 1.5t-46 16t-47.5 40.5q-44 -58 -93 -58h-52q-6 0 -16.5 1t-36.5 9.5t-44.5 23.5t-30 47.5t-3.5 76.5l37 210q1 6 4 17t16.5 38t32 47.5t54 37.5t79.5 17h210l-65 -367q2 -2 0 -14t9 -25.5t34 -13.5zM243 105q24 0 39.5 13.5t19.5 26.5l3 13 l47 262h-105q-24 0 -39.5 -13t-19.5 -26l-4 -13l-37 -210q-4 -24 7 -37t24 -15l13 -1h52zM460 579l-99 157h-63l-153 -157h94l77 79l49 -79h95z" />
<glyph unicode="&#xe3;" horiz-adv-x="502" d="M453 105l-18 -105q-9 0 -23.5 1.5t-46 16t-47.5 40.5q-44 -58 -93 -58h-52q-6 0 -16.5 1t-36.5 9.5t-44.5 23.5t-30 47.5t-3.5 76.5l37 210q1 6 4 17t16.5 38t32 47.5t54 37.5t79.5 17h210l-65 -367q2 -2 0 -14t9 -25.5t34 -13.5zM243 105q24 0 39.5 13.5t19.5 26.5l3 13 l47 262h-105q-24 0 -39.5 -13t-19.5 -26l-4 -13l-37 -210q-4 -24 7 -37t24 -15l13 -1h52zM382 675q14 0 26 13q12 12 18 24l6 13h53q-6 -37 -44 -87t-75 -50q-22 0 -62 25t-55 25q-14 0 -27 -12q-12 -14 -18 -26l-6 -12h-52q6 36 44 86.5t74 50.5q22 0 63 -25t55 -25z" />
<glyph unicode="&#xe4;" horiz-adv-x="502" d="M453 105l-18 -105q-9 0 -23.5 1.5t-46 16t-47.5 40.5q-44 -58 -93 -58h-52q-6 0 -16.5 1t-36.5 9.5t-44.5 23.5t-30 47.5t-3.5 76.5l37 210q1 6 4 17t16.5 38t32 47.5t54 37.5t79.5 17h210l-65 -367q2 -2 0 -14t9 -25.5t34 -13.5zM243 105q24 0 39.5 13.5t19.5 26.5l3 13 l47 262h-105q-24 0 -39.5 -13t-19.5 -26l-4 -13l-37 -210q-4 -24 7 -37t24 -15l13 -1h52zM466 704l-19 -105h-105l19 105h105zM287 704l-19 -105h-105l19 105h105z" />
<glyph unicode="&#xe5;" horiz-adv-x="502" d="M453 105l-18 -105q-9 0 -23.5 1.5t-46 16t-47.5 40.5q-44 -58 -93 -58h-52q-6 0 -16.5 1t-36.5 9.5t-44.5 23.5t-30 47.5t-3.5 76.5l37 210q1 6 4 17t16.5 38t32 47.5t54 37.5t79.5 17h210l-65 -367q2 -2 0 -14t9 -25.5t34 -13.5zM243 105q24 0 39.5 13.5t19.5 26.5l3 13 l47 262h-105q-24 0 -39.5 -13t-19.5 -26l-4 -13l-37 -210q-4 -24 7 -37t24 -15l13 -1h52zM216 656q8 41 42 70.5t75 29.5t65 -29.5t17 -70.5t-41.5 -70t-75.5 -29t-65 29t-17 70zM277 656q-3 -16 6 -27t25 -11t29 11t16 27t-6 27t-25 11t-29 -11t-16 -27z" />
<glyph unicode="&#xe6;" horiz-adv-x="730" d="M409 158q2 -2 0 -14t9 -25.5t35 -13.5h210l-18 -105h-210q-9 0 -24 1.5t-47 16.5t-48 42q-49 -60 -91 -60h-53q-6 0 -16.5 1t-36 9.5t-44 23.5t-30 47.5t-3.5 76.5l37 210q1 6 4 17t16 38t31.5 47.5t54 37.5t79.5 17h315q6 0 16.5 -1t36.5 -9.5t44 -23t29.5 -47 t3.5 -76.5q-1 -6 -4 -17t-16 -38t-31.5 -48t-54 -38t-79.5 -17h-105zM456 420l-19 -105h105q6 0 15 1.5t26 14.5t21 37q8 44 -35 51l-8 1h-105zM341 368l10 52h-105q-23 0 -38.5 -13t-19.5 -26l-4 -13l-37 -210q-4 -24 6.5 -37t23.5 -15l13 -1h53q23 0 39 13q14 14 18 27 l4 13z" />
<glyph unicode="&#xe7;" horiz-adv-x="468" d="M234 -35l6 35q40 3 72.5 20t50 40t29.5 45q10 21 14 37l4 16h-105q-4 -24 -19.5 -37t-29.5 -15l-13 -1h-52q-24 0 -35 13.5t-10 26.5l1 13l37 210q4 23 20 36q16 12 30 14l13 2h52q45 0 44 -44l-1 -8h105q8 44 -2.5 76.5t-31 47t-42.5 23t-38 9.5l-16 1h-52 q-119 0 -170 -109q-12 -26 -16 -48l-37 -210q-3 -32 -2 -55.5t13 -40.5t23 -28t28 -18t28.5 -10t23.5 -5l-11 -64h11q17 0 27.5 -12.5t7.5 -29.5t-17.5 -29.5t-31.5 -12.5h-42l-11 -63h41q67 0 106.5 25t45.5 64q5 30 -8.5 53.5t-39.5 32.5z" />
<glyph unicode="&#xe8;" horiz-adv-x="468" d="M447 368q-1 -6 -4 -17t-16 -38t-31.5 -48t-54 -38t-79.5 -17h-105l-10 -52q2 -2 0 -14t9 -25.5t35 -13.5h210l-18 -105h-210q-6 0 -16.5 1t-36.5 9.5t-44.5 23.5t-30 47.5t-3.5 76.5l37 210q1 6 4 17t16.5 38t32 47.5t54 37.5t79.5 17h52q6 0 16.5 -1t36.5 -9.5t44 -23 t29.5 -47t3.5 -76.5zM175 315h105q6 0 15 1.5t26 14.5t21 37q8 44 -35 51l-8 1h-52q-2 0 -5.5 -0.5t-13.5 -3t-18 -7.5t-15.5 -15.5t-10.5 -25.5zM185 735h105l51 -157h-79z" />
<glyph unicode="&#xe9;" horiz-adv-x="468" d="M447 368q-1 -6 -4 -17t-16 -38t-31.5 -48t-54 -38t-79.5 -17h-105l-10 -52q2 -2 0 -14t9 -25.5t35 -13.5h210l-18 -105h-210q-6 0 -16.5 1t-36.5 9.5t-44.5 23.5t-30 47.5t-3.5 76.5l37 210q1 6 4 17t16.5 38t32 47.5t54 37.5t79.5 17h52q6 0 16.5 -1t36.5 -9.5t44 -23 t29.5 -47t3.5 -76.5zM175 315h105q6 0 15 1.5t26 14.5t21 37q8 44 -35 51l-8 1h-52q-2 0 -5.5 -0.5t-13.5 -3t-18 -7.5t-15.5 -15.5t-10.5 -25.5zM471 735h-105l-107 -157h79z" />
<glyph unicode="&#xea;" horiz-adv-x="468" d="M447 368q-1 -6 -4 -17t-16 -38t-31.5 -48t-54 -38t-79.5 -17h-105l-10 -52q2 -2 0 -14t9 -25.5t35 -13.5h210l-18 -105h-210q-6 0 -16.5 1t-36.5 9.5t-44.5 23.5t-30 47.5t-3.5 76.5l37 210q1 6 4 17t16.5 38t32 47.5t54 37.5t79.5 17h52q6 0 16.5 -1t36.5 -9.5t44 -23 t29.5 -47t3.5 -76.5zM175 315h105q6 0 15 1.5t26 14.5t21 37q8 44 -35 51l-8 1h-52q-2 0 -5.5 -0.5t-13.5 -3t-18 -7.5t-15.5 -15.5t-10.5 -25.5zM460 579l-99 157h-63l-153 -157h94l77 79l49 -79h95z" />
<glyph unicode="&#xeb;" horiz-adv-x="468" d="M447 368q-1 -6 -4 -17t-16 -38t-31.5 -48t-54 -38t-79.5 -17h-105l-10 -52q2 -2 0 -14t9 -25.5t35 -13.5h210l-18 -105h-210q-6 0 -16.5 1t-36.5 9.5t-44.5 23.5t-30 47.5t-3.5 76.5l37 210q1 6 4 17t16.5 38t32 47.5t54 37.5t79.5 17h52q6 0 16.5 -1t36.5 -9.5t44 -23 t29.5 -47t3.5 -76.5zM175 315h105q6 0 15 1.5t26 14.5t21 37q8 44 -35 51l-8 1h-52q-2 0 -5.5 -0.5t-13.5 -3t-18 -7.5t-15.5 -15.5t-10.5 -25.5zM466 704l-19 -105h-105l19 105h105zM287 704l-19 -105h-105l19 105h105z" />
<glyph unicode="&#xec;" horiz-adv-x="244" d="M195 105l-18 -105q-6 0 -16.5 1t-36 9.5t-44 23.5t-30 47.5t-3.5 76.5l65 367h105l-65 -367q2 -2 0 -14t9 -25.5t34 -13.5zM61 735h105l51 -157h-79z" />
<glyph unicode="&#xed;" horiz-adv-x="244" d="M195 105l-18 -105q-6 0 -16.5 1t-36 9.5t-44 23.5t-30 47.5t-3.5 76.5l65 367h105l-65 -367q2 -2 0 -14t9 -25.5t34 -13.5zM347 735h-105l-107 -157h79z" />
<glyph unicode="&#xee;" horiz-adv-x="244" d="M195 105l-18 -105q-6 0 -16.5 1t-36 9.5t-44 23.5t-30 47.5t-3.5 76.5l65 367h105l-65 -367q2 -2 0 -14t9 -25.5t34 -13.5zM336 579l-99 157h-63l-153 -157h94l77 79l49 -79h95z" />
<glyph unicode="&#xef;" horiz-adv-x="244" d="M195 105l-18 -105q-6 0 -16.5 1t-36 9.5t-44 23.5t-30 47.5t-3.5 76.5l65 367h105l-65 -367q2 -2 0 -14t9 -25.5t34 -13.5zM342 704l-19 -105h-105l19 105h105zM163 704l-19 -105h-105l19 105h105z" />
<glyph unicode="&#xf0;" horiz-adv-x="483" d="M262 483l-48 47l62 62q-36 28 -95 49l48 94q78 -21 129 -61l70 70l47 -47l-69 -70q63 -82 44 -186l-50 -283q-14 -79 -70.5 -118.5t-114.5 -39.5h-52q-54 0 -87 27t-41.5 61t-2.5 70l19 105q14 78 71 117.5t115 39.5h105l3 21q10 54 -23 103zM295 158l28 157h-105 q-54 -2 -62 -52l-19 -105q-7 -53 44 -53h51q55 2 63 53z" />
<glyph unicode="&#xf1;" horiz-adv-x="503" d="M458 370q8 44 -3 76t-31.5 46.5t-42.5 23t-38 8.5l-16 1h-52q-6 0 -15 -1.5t-26 -14.5t-21 -37l-43 53h-53l-92 -525h105l64 367q1 6 4 15t19 23.5t40 14.5h52q2 0 5.5 -0.5t12 -3t14.5 -7.5t10 -16t1 -26l-64 -367h105zM318 675q14 0 26 13q12 12 18 24l6 13h53 q-6 -37 -44 -87t-75 -50q-22 0 -62 25t-55 25q-14 0 -27 -12q-12 -14 -18 -26l-6 -12h-52q6 36 44 86.5t74 50.5q22 0 63 -25t55 -25z" />
<glyph unicode="&#xf2;" horiz-adv-x="487" d="M317 525q6 0 16.5 -1t36 -9.5t43.5 -23t29.5 -47t3.5 -76.5l-37 -210q-1 -6 -4 -17t-16 -38t-31.5 -48t-53.5 -38t-79 -17h-53q-6 0 -16.5 1t-36 9.5t-44 23.5t-30 47.5t-3.5 76.5l37 210q1 6 4 17t16 38t31.5 47.5t54 37.5t79.5 17h53zM304 158l37 210q-2 2 0.5 13.5 t-8.5 25t-34 13.5h-53q-6 0 -15 -1.5t-26 -14.5t-21 -36l-37 -210q2 -2 0 -14t9 -25.5t34 -13.5h53q6 0 15 1.5t25.5 14.5t20.5 37zM185 735h105l51 -157h-79z" />
<glyph unicode="&#xf3;" horiz-adv-x="487" d="M317 525q6 0 16.5 -1t36 -9.5t43.5 -23t29.5 -47t3.5 -76.5l-37 -210q-1 -6 -4 -17t-16 -38t-31.5 -48t-53.5 -38t-79 -17h-53q-6 0 -16.5 1t-36 9.5t-44 23.5t-30 47.5t-3.5 76.5l37 210q1 6 4 17t16 38t31.5 47.5t54 37.5t79.5 17h53zM304 158l37 210q-2 2 0.5 13.5 t-8.5 25t-34 13.5h-53q-6 0 -15 -1.5t-26 -14.5t-21 -36l-37 -210q2 -2 0 -14t9 -25.5t34 -13.5h53q6 0 15 1.5t25.5 14.5t20.5 37zM471 735h-105l-107 -157h79z" />
<glyph unicode="&#xf4;" horiz-adv-x="487" d="M317 525q6 0 16.5 -1t36 -9.5t43.5 -23t29.5 -47t3.5 -76.5l-37 -210q-1 -6 -4 -17t-16 -38t-31.5 -48t-53.5 -38t-79 -17h-53q-6 0 -16.5 1t-36 9.5t-44 23.5t-30 47.5t-3.5 76.5l37 210q1 6 4 17t16 38t31.5 47.5t54 37.5t79.5 17h53zM304 158l37 210q-2 2 0.5 13.5 t-8.5 25t-34 13.5h-53q-6 0 -15 -1.5t-26 -14.5t-21 -36l-37 -210q2 -2 0 -14t9 -25.5t34 -13.5h53q6 0 15 1.5t25.5 14.5t20.5 37zM460 579l-99 157h-63l-153 -157h94l77 79l49 -79h95z" />
<glyph unicode="&#xf5;" horiz-adv-x="487" d="M317 525q6 0 16.5 -1t36 -9.5t43.5 -23t29.5 -47t3.5 -76.5l-37 -210q-1 -6 -4 -17t-16 -38t-31.5 -48t-53.5 -38t-79 -17h-53q-6 0 -16.5 1t-36 9.5t-44 23.5t-30 47.5t-3.5 76.5l37 210q1 6 4 17t16 38t31.5 47.5t54 37.5t79.5 17h53zM304 158l37 210q-2 2 0.5 13.5 t-8.5 25t-34 13.5h-53q-6 0 -15 -1.5t-26 -14.5t-21 -36l-37 -210q2 -2 0 -14t9 -25.5t34 -13.5h53q6 0 15 1.5t25.5 14.5t20.5 37zM382 675q14 0 26 13q12 12 18 24l6 13h53q-6 -37 -44 -87t-75 -50q-22 0 -62 25t-55 25q-14 0 -27 -12q-12 -14 -18 -26l-6 -12h-52 q6 36 44 86.5t74 50.5q22 0 63 -25t55 -25z" />
<glyph unicode="&#xf6;" horiz-adv-x="487" d="M317 525q6 0 16.5 -1t36 -9.5t43.5 -23t29.5 -47t3.5 -76.5l-37 -210q-1 -6 -4 -17t-16 -38t-31.5 -48t-53.5 -38t-79 -17h-53q-6 0 -16.5 1t-36 9.5t-44 23.5t-30 47.5t-3.5 76.5l37 210q1 6 4 17t16 38t31.5 47.5t54 37.5t79.5 17h53zM304 158l37 210q-2 2 0.5 13.5 t-8.5 25t-34 13.5h-53q-6 0 -15 -1.5t-26 -14.5t-21 -36l-37 -210q2 -2 0 -14t9 -25.5t34 -13.5h53q6 0 15 1.5t25.5 14.5t20.5 37zM466 704l-19 -105h-105l19 105h105zM287 704l-19 -105h-105l19 105h105z" />
<glyph unicode="&#xf7;" horiz-adv-x="490" d="M45 315h420l-18 -105h-420zM336 473l-19 -105h-105l19 105h105zM157 53l18 105h105l-18 -105h-105z" />
<glyph unicode="&#xf8;" horiz-adv-x="493" d="M75 -15l-57 37l35 45q-18 36 -8 91l37 210q1 6 4 17t16 38t31.5 47.5t54 37.5t79.5 17h53q38 0 73 -19l27 35l56 -38l-35 -45q17 -38 8 -90l-37 -210q-1 -6 -4 -17t-16 -38t-31.5 -48t-53.5 -38t-79 -17h-53q-38 0 -74 19zM307 158l29 164l-165 -213q7 -4 22 -4h53 q6 0 15 1.5t25.5 14.5t20.5 37zM187 368l-29 -165l165 213q-12 4 -21 4h-53q-6 0 -15 -1.5t-26 -14.5t-21 -36z" />
<glyph unicode="&#xf9;" horiz-adv-x="507" d="M414 158q2 -2 0 -14t9 -25.5t35 -13.5l-18 -105q-9 0 -23.5 1.5t-46 16t-47.5 40.5q-46 -58 -93 -58h-53q-6 0 -16.5 1t-36 9.5t-44 23.5t-30 47.5t-3.5 76.5l65 367h105l-65 -367q-4 -24 7 -37t23 -15l13 -1h53q23 0 38.5 13.5t19.5 26.5l3 13l65 367h105zM190 735h105 l51 -157h-79z" />
<glyph unicode="&#xfa;" horiz-adv-x="507" d="M414 158q2 -2 0 -14t9 -25.5t35 -13.5l-18 -105q-9 0 -23.5 1.5t-46 16t-47.5 40.5q-46 -58 -93 -58h-53q-6 0 -16.5 1t-36 9.5t-44 23.5t-30 47.5t-3.5 76.5l65 367h105l-65 -367q-4 -24 7 -37t23 -15l13 -1h53q23 0 38.5 13.5t19.5 26.5l3 13l65 367h105zM476 735h-105 l-107 -157h79z" />
<glyph unicode="&#xfb;" horiz-adv-x="507" d="M414 158q2 -2 0 -14t9 -25.5t35 -13.5l-18 -105q-9 0 -23.5 1.5t-46 16t-47.5 40.5q-46 -58 -93 -58h-53q-6 0 -16.5 1t-36 9.5t-44 23.5t-30 47.5t-3.5 76.5l65 367h105l-65 -367q-4 -24 7 -37t23 -15l13 -1h53q23 0 38.5 13.5t19.5 26.5l3 13l65 367h105zM465 579 l-99 157h-63l-153 -157h94l77 79l49 -79h95z" />
<glyph unicode="&#xfc;" horiz-adv-x="507" d="M414 158q2 -2 0 -14t9 -25.5t35 -13.5l-18 -105q-9 0 -23.5 1.5t-46 16t-47.5 40.5q-46 -58 -93 -58h-53q-6 0 -16.5 1t-36 9.5t-44 23.5t-30 47.5t-3.5 76.5l65 367h105l-65 -367q-4 -24 7 -37t23 -15l13 -1h53q23 0 38.5 13.5t19.5 26.5l3 13l65 367h105zM471 704 l-19 -105h-105l19 105h105zM292 704l-19 -105h-105l19 105h105z" />
<glyph unicode="&#xfd;" horiz-adv-x="512" d="M374 525h105l-102 -578q-8 -44 -30 -76.5t-47.5 -47t-49.5 -23.5q-26 -8 -42 -9l-16 -1h-179l19 105h179q23 0 39 13q14 13 18 26l4 13l10 53h-105q-6 0 -16.5 1t-36 9.5t-44 23.5t-30 47.5t-3.5 76.5l65 367h105l-65 -367q-4 -24 7 -37t23 -15l13 -1h105zM476 735h-105 l-107 -157h79z" />
<glyph unicode="&#xfe;" horiz-adv-x="498" d="M327 525q6 0 16.5 -1t36.5 -9.5t44 -23t29.5 -47t3.5 -76.5l-37 -210q-8 -44 -29.5 -76.5t-47.5 -47.5t-50.5 -23.5t-40.5 -9.5l-17 -1h-105l-38 -210h-105l167 945h105l-46 -262q1 6 4 14.5t18.5 23t39.5 14.5h52zM315 158l37 210q-2 2 0.5 13.5t-8.5 25t-35 13.5h-52 q-2 0 -5.5 -0.5t-13.5 -3t-18 -7.5t-15.5 -15.5t-10.5 -25.5l-46 -263h105q6 0 15 1.5t26 14.5t21 37z" />
<glyph unicode="&#xff;" horiz-adv-x="512" d="M374 525h105l-102 -578q-8 -44 -30 -76.5t-47.5 -47t-49.5 -23.5q-26 -8 -42 -9l-16 -1h-179l19 105h179q23 0 39 13q14 13 18 26l4 13l10 53h-105q-6 0 -16.5 1t-36 9.5t-44 23.5t-30 47.5t-3.5 76.5l65 367h105l-65 -367q-4 -24 7 -37t23 -15l13 -1h105zM471 704 l-19 -105h-105l19 105h105zM292 704l-19 -105h-105l19 105h105z" />
<glyph unicode="&#x152;" horiz-adv-x="767" d="M631 578q-106 -6 -121 -92q-4 -24 2 -42.5t17 -27.5t26.5 -14.5t25.5 -6.5t18 -1h105l-19 -105h-105q-11 0 -25 -2.5t-35.5 -10.5t-38.5 -28.5t-22 -50.5q-4 -24 2 -42.5t17 -27.5t26.5 -14.5t25.5 -6.5t18 -1h157l-18 -105h-157q-41 0 -82 16t-66 48q-68 -64 -167 -64 q-143 0 -170 123q-10 46 -3 87l46 263q2 9 5.5 23t21 50t42.5 64t72 50.5t106 22.5q101 0 145 -64q74 64 170 64h157l-19 -105h-157zM233 105q29 0 53 11t36.5 26.5t21 30.5t10.5 26l3 11q17 81 87 131q-52 52 -41 132q1 4 1.5 11t-2 25.5t-10 32t-27.5 25t-49 11.5 q-84 0 -116 -81l-7 -24l-46 -263q-1 -4 -1.5 -11t2 -25.5t9.5 -32t27 -25t49 -11.5z" />
<glyph unicode="&#x153;" horiz-adv-x="730" d="M409 158q2 -2 0 -14t9 -25.5t35 -13.5h210l-18 -105h-210q-59 0 -99 36q-46 -36 -111 -36h-53q-6 0 -16.5 1t-36 9.5t-44 23.5t-30 47.5t-3.5 76.5l37 210q1 6 4 17t16 38t31.5 47.5t54 37.5t79.5 17h53q58 0 98 -36q45 36 112 36h52q6 0 16.5 -1t36.5 -9.5t44 -23 t29.5 -47t3.5 -76.5q-1 -6 -4 -17t-16 -38t-31.5 -48t-54 -38t-79.5 -17h-105zM509 420q-2 0 -5.5 -0.5t-13.5 -3t-18 -7.5t-15.5 -15.5t-10.5 -25.5l-9 -53h105q6 0 15 1.5t26 14.5t21 37q8 44 -35 51l-8 1h-52zM243 105q6 0 15 1.5t25.5 14.5t20.5 37l37 210 q-2 2 0.5 13.5t-8.5 25t-34 13.5h-53q-6 0 -15 -1.5t-26 -14.5t-21 -36l-37 -210q2 -2 0 -14t9 -25.5t34 -13.5h53z" />
<glyph unicode="&#x178;" horiz-adv-x="440" d="M535 683l-256 -391l-51 -292h-105l51 292l-119 391h117l75 -273l172 273h116zM441 852l-19 -105h-105l19 105h105zM262 852l-19 -105h-105l19 105h105z" />
<glyph unicode="&#x2c6;" horiz-adv-x="385" d="M407 579l-99 157h-63l-153 -157h94l77 79l49 -79h95z" />
<glyph unicode="&#x2dc;" horiz-adv-x="385" d="M329 675q14 0 26.5 12.5t18.5 24.5l5 13h53q-6 -37 -44 -87t-75 -50q-22 0 -62 25t-55 25q-14 0 -26 -12q-13 -14 -19 -26l-6 -12h-52q6 36 44 86.5t74 50.5q22 0 63 -25t55 -25z" />
<glyph unicode="&#x2000;" horiz-adv-x="452" />
<glyph unicode="&#x2001;" horiz-adv-x="904" />
<glyph unicode="&#x2002;" horiz-adv-x="452" />
<glyph unicode="&#x2003;" horiz-adv-x="904" />
<glyph unicode="&#x2004;" horiz-adv-x="301" />
<glyph unicode="&#x2005;" horiz-adv-x="226" />
<glyph unicode="&#x2006;" horiz-adv-x="150" />
<glyph unicode="&#x2007;" horiz-adv-x="150" />
<glyph unicode="&#x2008;" horiz-adv-x="113" />
<glyph unicode="&#x2009;" horiz-adv-x="180" />
<glyph unicode="&#x200a;" horiz-adv-x="50" />
<glyph unicode="&#x2010;" horiz-adv-x="385" d="M45 315h315l-18 -105h-315z" />
<glyph unicode="&#x2011;" horiz-adv-x="385" d="M45 315h315l-18 -105h-315z" />
<glyph unicode="&#x2013;" horiz-adv-x="367" d="M-6 226h367l13 73h-367z" />
<glyph unicode="&#x2014;" horiz-adv-x="630" d="M7 299h630l-13 -73h-630z" />
<glyph unicode="&#x2018;" horiz-adv-x="194" d="M61 404l22 124q17 101 100 146l20 9l23 -47q-70 -26 -80 -95l-1 -13h62l-22 -124h-124z" />
<glyph unicode="&#x2019;" horiz-adv-x="195" d="M235 683l-22 -124q-6 -35 -21 -63.5t-31.5 -45t-32.5 -27.5t-26 -15l-10 -4l-23 47q37 14 57.5 41t22.5 47l2 20h-63l22 124h125z" />
<glyph unicode="&#x201a;" horiz-adv-x="195" d="M136 124l-21 -124q-18 -101 -102 -146l-20 -9l-23 47q37 14 58 41t23 47l2 20h-63l21 124h125z" />
<glyph unicode="&#x201c;" horiz-adv-x="388" d="M254 404l22 124q6 35 20.5 63.5t31 45t32.5 27.5t26 15l11 4l23 -47q-37 -14 -57.5 -41t-22.5 -47l-2 -20h63l-22 -124h-125zM61 404l22 124q17 101 100 146l20 9l23 -47q-70 -26 -80 -95l-1 -13h62l-22 -124h-124z" />
<glyph unicode="&#x201d;" horiz-adv-x="388" d="M235 683l-22 -124q-6 -35 -21 -63.5t-31.5 -45t-32.5 -27.5t-26 -15l-10 -4l-23 47q37 14 57.5 41t22.5 47l2 20h-63l22 124h125zM428 683l-22 -124q-18 -101 -100 -146l-20 -9l-23 47q70 26 80 96l1 12h-62l22 124h124z" />
<glyph unicode="&#x201e;" horiz-adv-x="388" d="M136 124l-21 -124q-18 -101 -102 -146l-20 -9l-23 47q37 14 58 41t23 47l2 20h-63l21 124h125zM329 124l-21 -124q-6 -35 -21 -63.5t-31.5 -45t-32 -27.5t-25.5 -15l-11 -4l-23 47q37 14 57.5 41t22.5 47l2 20h-62l21 124h124z" />
<glyph unicode="&#x2022;" horiz-adv-x="311" d="M277 263q9 49 -20.5 84.5t-79.5 35.5q-49 0 -90.5 -35t-50.5 -85t20 -85.5t79 -35.5t91.5 35.5t50.5 85.5z" />
<glyph unicode="&#x2026;" horiz-adv-x="682" d="M3 75l88 74l61 -74l-87 -74zM235 75l87 74l62 -74l-88 -74zM554 149l61 -74l-87 -74l-61 74z" />
<glyph unicode="&#x202f;" horiz-adv-x="180" />
<glyph unicode="&#x2039;" horiz-adv-x="365" d="M183 53l-162 210l236 210h126l-233 -210l159 -210h-126z" />
<glyph unicode="&#x203a;" horiz-adv-x="366" d="M110 53l237 210l-163 210h-126l159 -210l-233 -210h126z" />
<glyph unicode="&#x205f;" horiz-adv-x="226" />
<glyph unicode="&#x20ac;" horiz-adv-x="637" d="M388 105q80 0 149 47l46 -85q-101 -67 -213 -67q-92 0 -162.5 45.5t-102.5 121.5l-126 -29l13 76l94 22q-3 24 -3 51l-81 -19l13 76l77 17q32 135 147 228.5t251 93.5q113 0 190 -67l-76 -85q-55 47 -133 47q-86 0 -160.5 -54.5t-104.5 -136.5l411 95l-13 -76l-415 -95 q0 -30 4 -51l402 92l-14 -75l-362 -83q56 -89 169 -89z" />
<glyph unicode="&#x2122;" horiz-adv-x="565" d="M450 552l98 131h57l-46 -263h-53l28 164l-103 -138l-54 138l-28 -164h-53l46 263h57zM112 420l37 210h-78l9 53h210l-9 -53h-79l-37 -210h-53z" />
</font>
</defs>
</svg>
